<?xml version="1.0" encoding="UTF-8"?>
<svg xmlns="http://www.w3.org/2000/svg" xmlns:xlink="http://www.w3.org/1999/xlink" viewBox="0 0 7229.22 7764.77">
  <defs>
    <style>
      .cls-1 {
        fill: url(#linear-gradient-2);
      }

      .cls-2 {
        fill: #81c5e8;
      }

      .cls-3 {
        fill: url(#linear-gradient-51);
      }

      .cls-4, .cls-5, .cls-6, .cls-7 {
        fill: #fff;
      }

      .cls-8 {
        fill: url(#linear-gradient-17);
      }

      .cls-9 {
        opacity: .15;
      }

      .cls-9, .cls-10, .cls-11, .cls-12, .cls-13, .cls-14, .cls-15 {
        fill: #b4bbe1;
      }

      .cls-16 {
        fill: url(#linear-gradient-43);
      }

      .cls-17 {
        fill: #dae3f2;
      }

      .cls-18 {
        fill: #442312;
      }

      .cls-19 {
        fill: url(#linear-gradient-15);
      }

      .cls-20 {
        fill: #ff4740;
      }

      .cls-21 {
        opacity: .39;
      }

      .cls-21, .cls-22 {
        fill: #efefef;
      }

      .cls-5 {
        opacity: .4;
      }

      .cls-23 {
        fill: url(#linear-gradient-18);
      }

      .cls-24, .cls-25, .cls-26, .cls-27 {
        opacity: .35;
      }

      .cls-24, .cls-28, .cls-26, .cls-29, .cls-27, .cls-30, .cls-15 {
        mix-blend-mode: multiply;
      }

      .cls-24, .cls-31 {
        fill: #4588ff;
      }

      .cls-32 {
        fill: url(#linear-gradient-40);
      }

      .cls-33 {
        fill: #845424;
      }

      .cls-34 {
        fill: url(#linear-gradient-28);
      }

      .cls-35 {
        fill: url(#linear-gradient-14);
      }

      .cls-36 {
        fill: url(#linear-gradient-36);
      }

      .cls-37 {
        fill: url(#linear-gradient-20);
      }

      .cls-38 {
        fill: url(#linear-gradient-6);
      }

      .cls-39 {
        fill: #328eea;
      }

      .cls-40 {
        fill: url(#linear-gradient-53);
      }

      .cls-41 {
        isolation: isolate;
      }

      .cls-42 {
        fill: #2875df;
      }

      .cls-43 {
        fill: #af1e1e;
      }

      .cls-44 {
        fill: #7f391b;
      }

      .cls-10 {
        opacity: .11;
      }

      .cls-45 {
        fill: #cdd5f7;
      }

      .cls-46 {
        fill: #ff6464;
      }

      .cls-47 {
        fill: #595959;
        opacity: .5;
      }

      .cls-48 {
        fill: #063444;
      }

      .cls-49 {
        fill: url(#linear-gradient-35);
      }

      .cls-50 {
        fill: url(#linear-gradient-48);
      }

      .cls-51 {
        fill: url(#linear-gradient-32);
      }

      .cls-52 {
        fill: #ff9906;
      }

      .cls-53 {
        stroke-width: .85px;
      }

      .cls-53, .cls-54, .cls-55, .cls-56, .cls-57 {
        fill: none;
      }

      .cls-53, .cls-54, .cls-56, .cls-57 {
        stroke-linecap: round;
      }

      .cls-53, .cls-55, .cls-57 {
        stroke-miterlimit: 10;
      }

      .cls-53, .cls-56 {
        stroke: #fff;
      }

      .cls-58 {
        fill: url(#linear-gradient-11);
      }

      .cls-59 {
        fill: url(#linear-gradient-50);
      }

      .cls-60, .cls-61 {
        fill: #75bcfc;
      }

      .cls-62 {
        fill: #ef770a;
      }

      .cls-11, .cls-28, .cls-63 {
        opacity: .25;
      }

      .cls-64 {
        fill: url(#linear-gradient-39);
      }

      .cls-65 {
        fill: #ce0d0d;
      }

      .cls-54, .cls-55 {
        stroke: #dae3f2;
      }

      .cls-54, .cls-56 {
        stroke-linejoin: round;
      }

      .cls-66 {
        fill: #ce3232;
      }

      .cls-67 {
        fill: url(#linear-gradient-10);
      }

      .cls-6, .cls-15 {
        opacity: .55;
      }

      .cls-61, .cls-13 {
        opacity: .45;
      }

      .cls-68 {
        fill: #682c17;
      }

      .cls-69 {
        fill: url(#linear-gradient-49);
      }

      .cls-70 {
        fill: url(#linear-gradient-37);
      }

      .cls-71, .cls-72 {
        opacity: .75;
      }

      .cls-71, .cls-73 {
        fill: #205ce2;
      }

      .cls-74 {
        fill: url(#linear-gradient-16);
      }

      .cls-75 {
        fill: #ffd1a4;
      }

      .cls-56 {
        stroke-width: 2.76px;
      }

      .cls-76 {
        fill: url(#linear-gradient-31);
      }

      .cls-77 {
        fill: #f7f5fa;
      }

      .cls-78 {
        fill: #ce2929;
      }

      .cls-79 {
        fill: url(#linear-gradient-41);
      }

      .cls-80 {
        fill: #3a3a3a;
      }

      .cls-12 {
        font-family: OpenSans-Bold, 'Open Sans';
        font-size: 130px;
        font-weight: 700;
      }

      .cls-81 {
        fill: url(#linear-gradient-21);
      }

      .cls-82 {
        fill: #c5c8e8;
      }

      .cls-83 {
        fill: #165bd6;
      }

      .cls-84 {
        fill: #347ee8;
      }

      .cls-85 {
        fill: url(#linear-gradient-25);
      }

      .cls-86 {
        fill: url(#linear-gradient-5);
      }

      .cls-29 {
        opacity: .19;
      }

      .cls-87 {
        fill: url(#linear-gradient-54);
      }

      .cls-88 {
        fill: url(#linear-gradient-45);
      }

      .cls-7, .cls-89 {
        opacity: .2;
      }

      .cls-90 {
        fill: url(#linear-gradient-34);
      }

      .cls-27 {
        fill: url(#linear-gradient-8);
      }

      .cls-57 {
        stroke: #b4bbe1;
      }

      .cls-91 {
        fill: #934b32;
      }

      .cls-92 {
        fill: #474747;
      }

      .cls-93 {
        fill: #ced2ef;
      }

      .cls-94 {
        fill: #2d2d2d;
      }

      .cls-89 {
        fill: url(#linear-gradient-52);
        mix-blend-mode: screen;
      }

      .cls-95 {
        fill: #d39867;
      }

      .cls-96 {
        fill: url(#linear-gradient-24);
      }

      .cls-97 {
        fill: url(#linear-gradient-9);
      }

      .cls-98 {
        fill: #1d68d6;
      }

      .cls-99 {
        fill: url(#linear-gradient-22);
      }

      .cls-100 {
        fill: #ebf6f7;
      }

      .cls-101 {
        fill: url(#linear-gradient-42);
      }

      .cls-102 {
        fill: #e8ecf7;
      }

      .cls-103 {
        fill: url(#linear-gradient-3);
      }

      .cls-104 {
        fill: #f2ba88;
      }

      .cls-30 {
        fill: url(#linear-gradient-7);
      }

      .cls-105 {
        fill: url(#linear-gradient);
      }

      .cls-106 {
        fill: #134dce;
      }

      .cls-107 {
        fill: url(#linear-gradient-27);
      }

      .cls-108 {
        fill: url(#linear-gradient-33);
      }

      .cls-109 {
        fill: url(#linear-gradient-38);
      }

      .cls-110 {
        fill: url(#linear-gradient-29);
      }

      .cls-111 {
        fill: #4b4c4c;
      }

      .cls-112 {
        fill: url(#linear-gradient-30);
      }

      .cls-113 {
        fill: url(#linear-gradient-23);
      }

      .cls-114 {
        fill: url(#linear-gradient-19);
      }

      .cls-115 {
        fill: #fcc106;
      }

      .cls-116 {
        fill: url(#linear-gradient-4);
      }

      .cls-117 {
        fill: #713e23;
      }

      .cls-118 {
        fill: url(#linear-gradient-44);
      }

      .cls-119 {
        fill: url(#linear-gradient-47);
      }

      .cls-120 {
        fill: url(#linear-gradient-46);
      }

      .cls-121 {
        fill: url(#linear-gradient-12);
      }

      .cls-122 {
        fill: url(#linear-gradient-13);
      }

      .cls-123 {
        fill: #190b05;
      }

      .cls-124 {
        fill: url(#linear-gradient-26);
      }
    </style>
    <linearGradient id="linear-gradient" x1="1745.86" y1="2830.38" x2="753.2" y2="3403.49" gradientUnits="userSpaceOnUse">
      <stop offset="0" stop-color="#b4bbe1" stop-opacity=".1"/>
      <stop offset=".63" stop-color="#b4bbe1" stop-opacity=".24"/>
      <stop offset="1" stop-color="#b4bbe1" stop-opacity=".3"/>
    </linearGradient>
    <linearGradient id="linear-gradient-2" x1="2362.94" y1="2985.29" x2="1370.28" y2="3558.4" xlink:href="#linear-gradient"/>
    <linearGradient id="linear-gradient-3" x1="715.81" y1="3947.58" x2="185.63" y2="4253.68" xlink:href="#linear-gradient"/>
    <linearGradient id="linear-gradient-4" x1="-3331.9" y1="4190.63" x2="159.88" y2="6206.61" gradientTransform="translate(1565.99) rotate(-180) scale(1 -1)" xlink:href="#linear-gradient"/>
    <linearGradient id="linear-gradient-5" x1="3950.43" y1="4312.08" x2="1868.9" y2="5513.85" gradientUnits="userSpaceOnUse">
      <stop offset="0" stop-color="#ced5ef"/>
      <stop offset=".37" stop-color="#d5ddf0"/>
      <stop offset=".87" stop-color="#dae3f2"/>
    </linearGradient>
    <linearGradient id="linear-gradient-6" x1="4485.87" y1="3984.7" x2="2388.78" y2="5195.45" xlink:href="#linear-gradient-5"/>
    <linearGradient id="linear-gradient-7" x1="4008.24" y1="5583.55" x2="4008.24" y2="2561.18" xlink:href="#linear-gradient"/>
    <linearGradient id="linear-gradient-8" x1="2837.4" y1="5460.74" x2="4545.38" y2="2502.43" gradientUnits="userSpaceOnUse">
      <stop offset="0" stop-color="#b4bbe1" stop-opacity=".1"/>
      <stop offset=".41" stop-color="#b4bbe1" stop-opacity=".4"/>
      <stop offset=".83" stop-color="#b4bbe1" stop-opacity=".8"/>
      <stop offset=".84" stop-color="#c5cae7" stop-opacity=".68"/>
      <stop offset=".87" stop-color="#daddf0" stop-opacity=".55"/>
      <stop offset=".89" stop-color="#eaecf6" stop-opacity=".44"/>
      <stop offset=".92" stop-color="#f6f6fb" stop-opacity=".36"/>
      <stop offset=".96" stop-color="#fcfdfe" stop-opacity=".31"/>
      <stop offset="1" stop-color="#fff" stop-opacity=".3"/>
    </linearGradient>
    <linearGradient id="linear-gradient-9" x1="3325.01" y1="2939.99" x2="4127.15" y2="2939.99" xlink:href="#linear-gradient-5"/>
    <linearGradient id="linear-gradient-10" x1="3325.01" y1="2856.95" x2="4127.15" y2="2856.95" xlink:href="#linear-gradient-5"/>
    <linearGradient id="linear-gradient-11" x1="3325.01" y1="3023.03" x2="4127.15" y2="3023.03" xlink:href="#linear-gradient-5"/>
    <linearGradient id="linear-gradient-12" x1="3325.01" y1="3106.07" x2="4127.15" y2="3106.07" xlink:href="#linear-gradient-5"/>
    <linearGradient id="linear-gradient-13" x1="3325.01" y1="3189.11" x2="4127.15" y2="3189.11" xlink:href="#linear-gradient-5"/>
    <linearGradient id="linear-gradient-14" x1="3878.77" y1="3908.53" x2="4127.09" y2="3908.53" xlink:href="#linear-gradient-5"/>
    <linearGradient id="linear-gradient-15" x1="3324.99" y1="3666.23" x2="3845.65" y2="3666.23" xlink:href="#linear-gradient-5"/>
    <linearGradient id="linear-gradient-16" x1="3325.01" y1="3680.46" x2="4180.72" y2="3680.46" xlink:href="#linear-gradient-5"/>
    <linearGradient id="linear-gradient-17" x1="3325.01" y1="3581.72" x2="4127.15" y2="3581.72" xlink:href="#linear-gradient-5"/>
    <linearGradient id="linear-gradient-18" x1="3325.01" y1="3498.68" x2="4127.15" y2="3498.68" xlink:href="#linear-gradient-5"/>
    <linearGradient id="linear-gradient-19" x1="3325.01" y1="4067.69" x2="4127.15" y2="4067.69" xlink:href="#linear-gradient-5"/>
    <linearGradient id="linear-gradient-20" x1="3318.13" y1="4180.48" x2="4252.91" y2="4180.48" xlink:href="#linear-gradient-5"/>
    <linearGradient id="linear-gradient-21" x1="3299.41" y1="4246.52" x2="4246.27" y2="4246.52" xlink:href="#linear-gradient-5"/>
    <linearGradient id="linear-gradient-22" x1="3325.01" y1="3984.65" x2="4127.15" y2="3984.65" xlink:href="#linear-gradient-5"/>
    <linearGradient id="linear-gradient-23" x1="3325.01" y1="3901.61" x2="4127.15" y2="3901.61" xlink:href="#linear-gradient-5"/>
    <linearGradient id="linear-gradient-24" x1="3792.8" y1="3954.16" x2="4127.09" y2="3954.16" xlink:href="#linear-gradient-5"/>
    <linearGradient id="linear-gradient-25" x1="3324.99" y1="3712.27" x2="3759.54" y2="3712.27" xlink:href="#linear-gradient-5"/>
    <linearGradient id="linear-gradient-26" x1="4205.82" y1="4139.56" x2="4599.19" y2="4139.56" xlink:href="#linear-gradient-5"/>
    <linearGradient id="linear-gradient-27" x1="4205.82" y1="4056.52" x2="4599.19" y2="4056.52" xlink:href="#linear-gradient-5"/>
    <linearGradient id="linear-gradient-28" x1="4205.82" y1="3930.48" x2="4599.19" y2="3930.48" xlink:href="#linear-gradient-5"/>
    <linearGradient id="linear-gradient-29" x1="4205.82" y1="4444.35" x2="4546.77" y2="4444.35" xlink:href="#linear-gradient-5"/>
    <linearGradient id="linear-gradient-30" x1="4205.82" y1="4376.42" x2="4599.19" y2="4376.42" xlink:href="#linear-gradient-5"/>
    <linearGradient id="linear-gradient-31" x1="4205.82" y1="4293.38" x2="4599.19" y2="4293.38" xlink:href="#linear-gradient-5"/>
    <linearGradient id="linear-gradient-32" x1="4205.82" y1="4210.34" x2="4599.19" y2="4210.34" xlink:href="#linear-gradient-5"/>
    <linearGradient id="linear-gradient-33" x1="3324.99" y1="3298.85" x2="4043.42" y2="3298.85" xlink:href="#linear-gradient-5"/>
    <linearGradient id="linear-gradient-34" x1="3325.01" y1="3554.09" x2="4607.6" y2="3554.09" xlink:href="#linear-gradient-5"/>
    <linearGradient id="linear-gradient-35" x1="4263.19" y1="4676.54" x2="4599.19" y2="4676.54" xlink:href="#linear-gradient-5"/>
    <linearGradient id="linear-gradient-36" x1="4326.71" y1="4872.15" x2="4467.97" y2="4872.15" xlink:href="#linear-gradient-5"/>
    <linearGradient id="linear-gradient-37" x1="3244.11" y1="4525.56" x2="4088.44" y2="4525.56" xlink:href="#linear-gradient-5"/>
    <linearGradient id="linear-gradient-38" x1="2771.44" y1="3999.89" x2="3458.54" y2="3999.89" xlink:href="#linear-gradient-5"/>
    <linearGradient id="linear-gradient-39" x1="2712.56" y1="4046" x2="3386.75" y2="4046" xlink:href="#linear-gradient-5"/>
    <linearGradient id="linear-gradient-40" x1="2661.51" y1="4098.1" x2="3333.88" y2="4098.1" xlink:href="#linear-gradient-5"/>
    <linearGradient id="linear-gradient-41" x1="2614.59" y1="4155.02" x2="3287.4" y2="4155.02" xlink:href="#linear-gradient-5"/>
    <linearGradient id="linear-gradient-42" x1="2576.61" y1="4215.67" x2="3250.23" y2="4215.67" xlink:href="#linear-gradient-5"/>
    <linearGradient id="linear-gradient-43" x1="2547.12" y1="4283.32" x2="3220.56" y2="4283.32" xlink:href="#linear-gradient-5"/>
    <linearGradient id="linear-gradient-44" x1="2518.93" y1="4581.72" x2="3781.41" y2="4581.72" xlink:href="#linear-gradient-5"/>
    <linearGradient id="linear-gradient-45" x1="2514.3" y1="4680.41" x2="3781.41" y2="4680.41" xlink:href="#linear-gradient-5"/>
    <linearGradient id="linear-gradient-46" x1="2500.02" y1="4771.82" x2="3766.62" y2="4771.82" xlink:href="#linear-gradient-5"/>
    <linearGradient id="linear-gradient-47" x1="2471.93" y1="4856.36" x2="3738.48" y2="4856.36" xlink:href="#linear-gradient-5"/>
    <linearGradient id="linear-gradient-48" x1="2429.92" y1="4933.32" x2="3698.31" y2="4933.32" xlink:href="#linear-gradient-5"/>
    <linearGradient id="linear-gradient-49" x1="2376.65" y1="5003.39" x2="3645.37" y2="5003.39" xlink:href="#linear-gradient-5"/>
    <linearGradient id="linear-gradient-50" x1="2969.21" y1="5257.19" x2="3579.93" y2="5257.19" xlink:href="#linear-gradient-5"/>
    <linearGradient id="linear-gradient-51" x1="6763.66" y1="6031.08" x2="5020.41" y2="7037.54" xlink:href="#linear-gradient"/>
    <linearGradient id="linear-gradient-52" x1="5153.91" y1="6145" x2="5665.05" y2="6145" xlink:href="#linear-gradient"/>
    <linearGradient id="linear-gradient-53" x1="2516.95" y1="6306.26" x2="1881.17" y2="6673.33" xlink:href="#linear-gradient"/>
    <linearGradient id="linear-gradient-54" x1="777.67" y1="7098.27" x2="-123.89" y2="7618.79" gradientTransform="translate(-36.37 27.09) rotate(-5.77)" xlink:href="#linear-gradient"/>
  </defs>
  <g class="cls-41">
    <g id="OBJECTS">
      <g>
        <g class="cls-29">
          <path class="cls-31" d="m4840.54,1263.28c-4.51-.79-9.05-2.45-13.4-4.94l-798.79-459.59c-19.26-11.08-31.72-31.66-31.72-52.41V30.98c0-12.27,6.06-22.63,16.24-27.72,10.15-5.06,23.01-4.18,34.34,2.34l797.58,458.9c19.29,11.09,31.75,31.67,31.75,52.42v716.66c0,11.96-5.92,22.06-15.82,27.02-6.06,3.04-13.08,3.91-20.19,2.67Z"/>
        </g>
        <g class="cls-26">
          <path class="cls-31" d="m5155.04,1822.81c-3.25-.57-6.52-1.76-9.65-3.56l-575.52-331.13c-13.88-7.99-22.86-22.81-22.86-37.77v-515.4c0-8.84,4.37-16.3,11.7-19.98,7.31-3.65,16.58-3.01,24.75,1.69l574.64,330.63c13.9,7.99,22.88,22.82,22.88,37.77v516.35c0,8.61-4.27,15.89-11.4,19.47-4.37,2.19-9.43,2.82-14.55,1.92Z"/>
        </g>
        <g class="cls-29">
          <path class="cls-31" d="m2458.51,1403.7c-2.23-.39-4.47-1.21-6.62-2.44l-394.71-227.1c-9.52-5.47-15.67-15.65-15.67-25.9v-353.48c0-6.06,3-11.18,8.03-13.7,5.02-2.5,11.37-2.07,16.97,1.16l394.11,226.76c9.53,5.48,15.69,15.65,15.69,25.9v354.13c0,5.91-2.93,10.9-7.82,13.36-3,1.5-6.47,1.93-9.98,1.32Z"/>
        </g>
        <g>
          <g class="cls-28">
            <path class="cls-31" d="m6457.78,3450.01c-4.84-.85-9.7-2.62-14.36-5.3l-856.35-492.71c-20.65-11.88-34.01-33.94-34.01-56.19v-766.9c0-13.15,6.5-24.26,17.41-29.72,10.88-5.43,24.67-4.48,36.82,2.51l855.05,491.97c20.68,11.89,34.04,33.95,34.04,56.2v768.3c0,12.82-6.35,23.65-16.96,28.97-6.5,3.26-14.03,4.2-21.64,2.86Z"/>
          </g>
          <g>
            <path class="cls-4" d="m6028.33,3084.5c-70.46-2.54-165.33-100.25-212.2-217.52-53.84-134.68-52.28-280.37,3.92-366.73,55.26-84.92,152.38-94.8,240.82-22.41-2.05,7.57-4.07,15.04-6.1,22.51-20.3,74.99-41.27,149.39-60.39,225.39-4.43,17.6-5.44,40.2-3.02,61.27,10.32,89.85,22.53,179.99,34,270.02,1.17,9.23,2,18.42,2.97,27.46Z"/>
            <path class="cls-4" d="m6056.89,3091.65c-12.6-98.76-24.69-193.52-37.2-291.58,63.35,56.54,124.46,111.08,187.11,167-29.58,82.73-79.22,122.73-149.91,124.57Z"/>
            <path class="cls-4" d="m6088.15,2502.8c99.41,89.92,160.3,292.35,128.19,426.84-65.13-58.13-130.22-116.23-196.3-175.21,22.78-84.14,45.45-167.88,68.12-251.62Z"/>
          </g>
        </g>
        <g>
          <polygon class="cls-105" points="666.85 3253.93 1011.47 3452.43 1832.21 2979.95 1490.24 2780.3 666.85 3253.93"/>
          <path class="cls-65" d="m1518.16,1371.8l-766.82,441.69,260.12,149.68,549.85-447.92v-118.51c0-22.15-23.96-36-43.15-24.94Z"/>
          <polygon class="cls-46" points="751.2 1854.58 1513.72 1415.35 1788.22 1573.74 1025.91 2012.82 751.2 1854.58"/>
          <path class="cls-20" d="m1809.07,1526.15c-9.76-6.14-21.82-9.74-33.21-3.17l-764.39,440.2-260.12-149.68,766.82-441.69c8.21-4.73,17.2-4.7,24.9-1.61v-.16s-26.71-13.11-37.27-19.35c-9.53-5.63-21.21-8.61-32.16-2.31l-806.79,464.71v1355.51l302.22-174.08v348.68l824.99-475.2c15.43-8.89,24.95-25.35,24.95-43.16l25.75-1278.63s-24-12.69-35.69-20.06Z"/>
          <polygon class="cls-46" points="1011.47 2011.92 666.85 1813.42 666.85 3168.92 1011.47 3367.43 1011.47 2011.92"/>
          <polygon class="cls-115" points="964.62 2085.13 698.94 1932.1 698.94 2035.78 964.62 2188.81 964.62 2085.13"/>
          <polygon class="cls-115" points="964.62 2222 698.94 2068.97 698.94 2104.86 964.62 2257.89 964.62 2222"/>
          <polygon class="cls-115" points="964.62 2288.77 698.94 2135.74 698.94 2171.63 964.62 2324.66 964.62 2288.77"/>
          <polygon class="cls-115" points="964.62 3191.11 698.94 3038.08 698.94 3073.97 964.62 3227 964.62 3191.11"/>
          <path class="cls-20" d="m1818.25,1547.21l-806.79,464.72v1355.5l824.99-475.2c15.43-8.89,24.95-25.35,24.95-43.16v-1276.92c0-22.15-23.96-35.99-43.15-24.94Z"/>
        </g>
        <g>
          <polygon class="cls-1" points="1283.93 3408.83 1628.55 3607.33 2449.29 3134.85 2107.32 2935.21 1283.93 3408.83"/>
          <path class="cls-14" d="m2135.24,1471.39l-766.82,441.69,260.12,149.68,549.85-447.92v-118.51c0-22.14-23.96-35.99-43.15-24.94Z"/>
          <polygon class="cls-17" points="1368.28 1954.16 2130.8 1514.93 2405.3 1673.32 1642.99 2112.4 1368.28 1954.16"/>
          <path class="cls-93" d="m2426.15,1625.73c-9.76-6.15-21.82-9.74-33.21-3.17l-764.4,440.2-260.12-149.68,766.82-441.69c8.21-4.73,17.2-4.7,24.9-1.61v-.16s-26.71-13.11-37.27-19.34c-9.53-5.63-21.21-8.61-32.16-2.31l-806.78,464.71v1355.5l302.22-174.08v348.68l824.99-475.2c15.43-8.89,24.94-25.35,24.94-43.16l25.75-1278.63s-24-12.69-35.69-20.06Z"/>
          <polygon class="cls-82" points="1628.55 2111.5 1283.93 1913 1283.93 3268.51 1628.55 3467.01 1628.55 2111.5"/>
          <polygon class="cls-4" points="1581.7 2184.72 1316.02 2031.69 1316.02 2135.36 1581.7 2288.39 1581.7 2184.72"/>
          <polygon class="cls-4" points="1581.7 2321.58 1316.02 2168.55 1316.02 2204.44 1581.7 2357.47 1581.7 2321.58"/>
          <polygon class="cls-4" points="1581.7 2388.35 1316.02 2235.32 1316.02 2271.21 1581.7 2424.24 1581.7 2388.35"/>
          <polygon class="cls-4" points="1581.7 3290.69 1316.02 3137.66 1316.02 3173.55 1581.7 3326.59 1581.7 3290.69"/>
          <path class="cls-14" d="m2435.33,1646.79l-806.79,464.71v1355.51l824.99-475.2c15.43-8.89,24.95-25.35,24.95-43.16v-1276.92c0-22.15-23.96-36-43.15-24.94Z"/>
        </g>
        <g>
          <polygon class="cls-103" points="0 3932.17 744.63 4367.89 901.44 4269.1 156.81 3833.38 0 3932.17"/>
          <polygon class="cls-82" points="901.44 3562.57 901.44 4182.77 744.63 4281.29 744.63 3661.36 901.44 3562.57"/>
          <polygon class="cls-93" points="0 3225.65 744.63 3661.36 901.44 3562.57 156.81 3126.86 0 3225.65"/>
          <polygon class="cls-14" points="744.76 4281.29 .13 3845.57 .13 3225.65 744.76 3661.36 744.76 4281.29"/>
          <polygon class="cls-82" points="0 3225.65 372.32 3753.47 744.63 3661.36 0 3225.65"/>
          <path class="cls-42" d="m602.87,3346.07v122.09c0,8.95-5.7,16.43-13.29,19.34-2.17.87-4.61,1.48-7.06,1.54-11.39.3-20.35-8.42-20.35-19.82v-122.09c0-11.67-6.24-22.36-16.01-28.07l-186.39-109.07c-4.34-2.6-9.23-2.47-13.57.09-1.08.57-1.9,1.13-2.71,1.97,0,0-.27.28-.81.56-2.17,2.5-3.26,5.78-3.26,9.31v92.24c0,8.41-5.42,15.88-12.75,19.05-2.44,1.15-4.89,1.76-7.6,1.83-11.4.3-20.35-8.69-20.35-19.82v-92.24c0-20.08,10.31-37.98,27.67-47.93,4.34-2.55,8.68-4.57,13.29-5.5,13.84-4.16,28.49-2.37,41.24,5.16l186.39,109.06c21.97,12.72,35.54,36.51,35.54,62.28Z"/>
          <polygon class="cls-62" points="414.51 3730.45 414.51 3793.78 400.46 3802.6 400.46 3739.29 414.51 3730.45"/>
          <polygon class="cls-52" points="324.47 3694.86 400.46 3739.29 414.51 3730.45 338.52 3686.05 324.47 3694.86"/>
          <polygon class="cls-115" points="400.46 3802.6 324.47 3758.13 324.47 3694.86 400.46 3739.29 400.46 3802.6"/>
          <path class="cls-39" d="m602.87,3346.07v122.09c0,8.95-5.7,16.43-13.29,19.34v-122.36c0-44.49-18.18-60.57-18.18-60.57l-231.69-135.01c13.84-4.16,28.49-2.37,41.24,5.16l186.39,109.06c21.97,12.72,35.54,36.51,35.54,62.28Z"/>
          <path class="cls-39" d="m342.69,3212.62c-2.17,2.5-3.26,5.78-3.26,9.31v92.24c0,8.41-5.42,15.88-12.75,19.05v-93.87c0-16.01,12.75-24.75,16.01-26.74Z"/>
        </g>
        <g>
          <path class="cls-116" d="m2728.73,3779.44l2897.63,1672.94-2024.71,1149.81c-46.57,26.44-103.66,26.24-150.03-.53l-2708.39-1563.69c-50.62-29.22-50.36-102.38.47-131.24l1985.04-1127.28Z"/>
          <path class="cls-14" d="m5694.32,2823.35v2165.72l-67.96,37.74-2829.67-1710.68-37.4-2167.93s46.51-25.39,63.51-35.32c16.92-9.89,38.49-12.34,57.88-1.14l2738.15,1580.87c46.71,26.97,75.48,76.8,75.48,130.74Z"/>
          <path class="cls-17" d="m5626.36,2861.09v2165.72l-2897.63-1672.94V1197.97c0-43.1,46.66-70.04,83.99-48.49l2738.15,1580.87c46.71,26.97,75.49,76.8,75.49,130.74Z"/>
          <polygon class="cls-73" points="5485.53 2825.83 5485.53 4804.27 2812.67 3264.69 2812.67 1286.25 5485.53 2825.83"/>
          <polygon class="cls-60" points="5083.28 2718.52 5083.28 2926.51 3569.51 2054.57 3569.51 1846.58 5083.28 2718.52"/>
          <polygon class="cls-42" points="3611.24 2019.46 3611.24 1927.17 5041.56 2751.06 5041.56 2843.33 3611.24 2019.46"/>
          <g>
            <path class="cls-61" d="m4611.33,3727.02l520.83,302.15c23.54,13.66,49.23.86,49.23-24.53v-608.4c0-14.6-8.87-29.31-22.41-37.16l-520.83-302.15c-23.54-13.66-49.23-.86-49.23,24.53v608.39c0,14.6,8.87,29.31,22.41,37.16Z"/>
            <g class="cls-63">
              <line class="cls-53" x1="5142" y1="3467.78" x2="4628.33" y2="3170.87"/>
              <line class="cls-53" x1="5142" y1="3531.92" x2="4628.33" y2="3235.02"/>
              <line class="cls-53" x1="5142" y1="3596.07" x2="4628.33" y2="3299.16"/>
              <line class="cls-53" x1="5142" y1="3660.21" x2="4628.33" y2="3363.31"/>
              <line class="cls-53" x1="5142" y1="3724.36" x2="4628.33" y2="3427.46"/>
              <line class="cls-53" x1="5142" y1="3788.51" x2="4628.33" y2="3491.6"/>
              <line class="cls-53" x1="5142" y1="3852.65" x2="4628.33" y2="3555.75"/>
              <line class="cls-53" x1="5142" y1="3916.79" x2="4759.92" y2="3695.95"/>
            </g>
          </g>
          <path class="cls-14" d="m2728.73,3436.91l2897.63,1589.9v83.04l-2024.71,1149.81c-46.57,26.45-103.66,26.24-150.03-.53l-2708.39-1563.69c-25.09-14.48-37.68-39.76-37.81-65.08-.14-25.78,0-83.72,0-83.72l2023.32-1109.73Z"/>
          <path class="cls-86" d="m2728.73,3353.87l2897.63,1672.94-2024.71,1149.81c-46.57,26.45-103.66,26.24-150.03-.53l-2708.39-1563.69c-50.62-29.23-50.36-102.38.47-131.24l1985.04-1127.28Z"/>
          <polygon class="cls-13" points="1693.26 4230.47 2787.56 3609.03 5181.4 4991.11 4087.1 5612.56 1693.26 4230.47"/>
          <path class="cls-38" d="m4214.15,4625.56l-99.5-57.45,119.72-67.97,99.5,57.45-119.72,67.97Zm481.64,333.61l-2087.68-1205.32-119.71,67.98,2087.68,1205.32,119.7-67.98Zm-490.41-475.76l-99.5-57.45-119.72,67.97,99.5,57.45,119.72-67.97Zm-128.49-74.18l-99.53-57.46-119.7,67.98,99.51,57.45,119.72-67.97Zm-1156.45-667.67l-144.39-83.36-119.7,67.98,144.38,83.36,119.71-67.98Zm1670.41,964.41l-99.5-57.45-119.7,67.98,99.5,57.45,119.7-67.98Zm128.49,74.18l-99.51-57.45-119.7,67.98,99.5,57.45,119.71-67.98Zm-256.98-148.37l-99.5-57.45-119.72,67.97,99.52,57.46,119.7-67.98Zm-1284.94-741.86l-99.51-57.45-119.71,67.98,99.51,57.45,119.7-67.98Zm128.49,74.18l-99.5-57.45-119.7,67.98,99.5,57.45,119.7-67.98Zm642.46,370.92l-99.5-57.45-119.7,67.98,99.51,57.45,119.7-67.98Zm-998.94-576.74l-119.71,67.98,99.5,57.45,119.71-67.98-99.5-57.45Zm484.98,280l-99.51-57.45-119.7,67.98,99.5,57.45,119.7-67.98Zm128.49,74.18l-99.5-57.45-119.7,67.98,99.5,57.45,119.7-67.98Zm256.98,148.37l-99.5-57.45-119.7,67.98,99.5,57.45,119.7-67.98Zm-128.49-74.18l-99.5-57.45-119.7,67.98,99.5,57.45,119.7-67.98Zm1172.6,676.99l-115.66-66.77-119.7,67.98,115.65,66.77,119.71-67.98Zm-842.78,479.52l-117.1,66.51,194.48,112.28,119.71-67.98-199.61-115.24,2.52,4.44Zm-27.34-74.3l272.66,157.42,119.71-67.98-272.65-157.42-119.72,67.97Zm-1964.3-1078.55l-93.21-53.82-119.71,67.98,93.22,53.82,119.7-67.98Zm2054.26,937.88l350.64,202.44,119.7-67.98-350.65-202.45-119.7,67.98Zm-89.01,196.76l-112.71-65.07-119.7,67.98,112.71,65.07,119.7-67.98Zm898.16-444.57l-119.71,67.98,165.02,95.28,119.71-67.98-165.02-95.28Zm-287.9,163.5l165.28,95.42,119.71-67.98-165.28-95.42-119.71,67.98Zm-262.42,41.11l259.76,149.97,119.7-67.98-259.76-149.97-119.7,67.98Zm-2038.39-598.99l119.72-67.97-365.43-210.98-119.7,67.98,365.41,210.97Zm259.88,12.95l-111.17-64.18-119.72,67.97,111.18,64.19,119.7-67.98Zm1869.22,501.33l-1993.19-1150.77-119.71,67.98,1993.2,1150.77,119.7-67.98Zm-348.77,183.88l-1980.3-1143.32-119.7,67.98,1980.28,1143.32,119.72-67.97Zm89.95-140.69l-1902.31-1098.3-119.7,67.98,1902.31,1098.3,119.7-67.98Zm-464.81,116.89l-836.27-482.82-119.7,67.98,836.27,482.82,119.7-67.98Zm-1005.44-580.49l-111.16-64.18-119.7,67.98,111.17,64.18,119.7-67.98Zm1148.83,663.27l-114.41-66.05-119.7,67.98,114.41,66.05,119.7-67.98Zm-1008.65-582.34l-111.19-64.19-119.7,67.98,111.19,64.19,119.7-67.98Z"/>
          <g>
            <path class="cls-77" d="m2243.86,4631.61l619.44,357.63c11.24,6.49,11.18,22.73-.11,29.14l-343.43,195.03c-15.61,8.86-34.74,8.79-50.28-.18l-619.44-357.63c-11.24-6.49-11.18-22.73.1-29.14l343.43-195.03c15.61-8.86,34.74-8.79,50.28.18Z"/>
            <path class="cls-14" d="m2863.3,5001.21l-619.44-357.63c-15.54-8.97-34.68-9.04-50.28-.18l-343.43,195.03c-3.63,2.06-5.96,5.17-7.27,8.61-2.77-7.3-.43-16.21,7.27-20.58l343.43-195.03c15.61-8.86,34.74-8.79,50.28.18l619.44,357.63c7.63,4.4,9.92,13.26,7.16,20.52-1.29-3.41-3.59-6.49-7.16-8.56Z"/>
          </g>
          <line class="cls-57" x1="4149.1" y1="1978.78" x2="4326.58" y2="2081.26"/>
          <path class="cls-14" d="m4410.79,2119.98c4.15,9.33-.04,16.89-9.37,16.89s-20.26-7.57-24.42-16.89c-4.16-9.33.04-16.89,9.37-16.89s20.26,7.56,24.42,16.89Z"/>
        </g>
        <g>
          <polygon class="cls-30" points="4511.04 2561.18 5000.53 2773.21 5000.53 2904.92 5000.53 4669.73 3450.05 5583.55 3015.95 5056.42 4511.04 2561.18"/>
          <path class="cls-14" d="m3833.5,4624.78l541.97,317.75.81-6.92c-29.6-21.36-49.64-56.15-49.64-98.57v-79.24c-.15-56.55-27.25-152.59-67.02-180.21-6.92-4.77-14.14-9.08-21.65-12.65l-.59-.27c-48.02-23.21-108.26-22.73-161.28,11.68-35.06,22.73-213.9,19.16-242.62,48.44Z"/>
          <path class="cls-4" d="m5000.53,2765.21l-1363.93-786.43-261.18,149.54h.11c-48.39,26.82-83.76,78.07-83.76,140.7v1588.48c0,47.72-12.42,94.37-34.95,135.52l-353.88-205.74c-7.36-5.19-15.17-9.78-23.42-13.47l-.59-.42c-22.83-10.69-48.16-16.14-74.23-15.23-28.72,1-58.18,9.69-85.72,27.59-159.95,103.83-257.31,281.33-257.45,468.98v4.27c0,171.44-84.98,334.66-226.82,435.79l-319.47,227.68,1357.14,789.4,319.46-227.68c141.84-101.13,232.15-269.27,226.97-435.8v-4.12c0-89.99,22.39-177.67,63.33-256.13,44.48-84.92,110.76-158.97,193.98-212.98,53.02-34.4,113.26-34.89,161.28-11.67l.59.27c7.51,3.57,16.25,9.44,22.51,15.06,58.37,52.3,66.01,121.25,66.15,177.8v79.24c0,98.98,108.99,155.41,192.8,99.75h.15c110.88-69.19,129.32-193.56,129.32-288.56v-1588.63c0-65.44,38.65-118.4,90.46-144.06l-.03.4,261.18-149.54Z"/>
          <path class="cls-27" d="m5000.53,2765.21l-1363.93-786.43-261.18,149.54h.11c-48.39,26.82-83.76,78.07-83.76,140.7v1588.48c0,47.72-12.42,94.37-34.95,135.52l-353.88-205.74c-7.36-5.19-15.17-9.78-23.42-13.47l-.59-.42c-22.83-10.69-48.16-16.14-74.23-15.23-28.72,1-58.18,9.69-85.72,27.59-159.95,103.83-257.31,281.33-257.45,468.98v4.27c0,171.44-84.98,334.66-226.82,435.79l-319.47,227.68,1357.14,789.4,319.46-227.68c141.84-101.13,232.15-269.27,226.97-435.8v-4.12c0-89.99,22.39-177.67,63.33-256.13,44.48-84.92,110.76-158.97,193.98-212.98,53.02-34.4,113.26-34.89,161.28-11.67l.59.27c7.51,3.57,16.25,9.44,22.51,15.06,58.37,52.3,66.01,121.25,66.15,177.8v79.24c0,98.98,108.99,155.41,192.8,99.75h.15c110.88-69.19,129.32-193.56,129.32-288.56v-1588.63c0-65.44,38.65-118.4,90.46-144.06l-.03.4,261.18-149.54Z"/>
          <path class="cls-4" d="m3356.14,4286.91l-62.18-36.08c16.49,17.94,38.25,30.56,62.18,36.08Z"/>
          <polygon class="cls-82" points="1915.24 4922.42 1915.24 4935.69 3272.38 5724.32 3272.38 5711.82 1915.24 4922.42"/>
          <path class="cls-100" d="m4301.93,4455.51c.1.01.22,0,.32.02,0,0-.13-.01-.32-.02Z"/>
          <g>
            <path class="cls-115" d="m4170.11,3468.38l423.25,245.51c6.22,3.63,14.25-1.13,14.25-8.44v-509.04c0-9.03-4.67-17.25-12.35-21.72l-428.08-248.33c-4.98-2.9-11.41.9-11.41,6.76v510.03c0,10.49,5.43,20.03,14.35,25.23Z"/>
            <path class="cls-97" d="m3329.21,2729.45l791.56,459.87c2.79,1.62,6.38-.51,6.38-3.78v-28.39c0-2.65-1.37-5.06-3.62-6.37l-791.97-460.11c-2.86-1.67-6.55.52-6.55,3.88v27.5c0,3.07,1.59,5.87,4.2,7.39Z"/>
            <path class="cls-67" d="m3329.21,2646.41l791.56,459.87c2.79,1.62,6.38-.5,6.38-3.78v-28.39c0-2.65-1.37-5.05-3.62-6.37l-791.97-460.11c-2.86-1.67-6.55.52-6.55,3.88v27.5c0,3.07,1.59,5.87,4.2,7.39Z"/>
            <path class="cls-58" d="m3329.21,2812.49l791.56,459.87c2.79,1.62,6.38-.51,6.38-3.78v-28.39c0-2.65-1.37-5.05-3.62-6.36l-791.97-460.11c-2.86-1.67-6.55.52-6.55,3.88v27.5c0,3.07,1.59,5.87,4.2,7.39Z"/>
            <path class="cls-121" d="m3329.21,2895.53l791.56,459.87c2.79,1.62,6.38-.5,6.38-3.78v-28.39c0-2.65-1.37-5.06-3.62-6.37l-791.97-460.11c-2.86-1.67-6.55.52-6.55,3.88v27.5c0,3.07,1.59,5.87,4.2,7.39Z"/>
            <path class="cls-122" d="m3329.21,2978.56l791.56,459.87c2.79,1.62,6.38-.5,6.38-3.78v-28.39c0-2.64-1.37-5.05-3.62-6.36l-791.97-460.11c-2.86-1.67-6.55.52-6.55,3.88v27.49c0,3.07,1.59,5.87,4.2,7.39Z"/>
            <path class="cls-35" d="m4123.58,3958.54l-239.53-138.71c-2.31-1.34-5.27.43-5.27,3.13v28.54c0,3.37,1.75,6.43,4.62,8.09l237.35,137.56c2.84,1.52,6.35-.49,6.35-3.87v-28.39c0-2.57-1.35-4.95-3.51-6.36Z"/>
            <path class="cls-19" d="m3324.99,3502.42v27.44c0,3.11,1.62,5.89,4.19,7.42l509.87,296.7c2.89,1.67,6.61-.53,6.61-3.93v-27.29c0-3.26-1.69-6.22-4.47-7.83l-509.57-296.4c-2.97-1.79-6.62.5-6.62,3.88Z"/>
            <path class="cls-74" d="m3329.21,3454.22l845.14,491.28c2.78,1.62,6.37-.51,6.37-3.78v-28.39c0-2.65-1.37-5.06-3.62-6.37l-845.54-491.52c-2.86-1.67-6.55.52-6.55,3.88v27.5c0,3.07,1.59,5.87,4.2,7.39Z"/>
            <path class="cls-8" d="m3329.21,3371.17l791.56,459.87c2.79,1.62,6.38-.51,6.38-3.78v-28.39c0-2.65-1.37-5.06-3.62-6.37l-791.97-460.11c-2.86-1.67-6.55.52-6.55,3.88v27.5c0,3.07,1.59,5.87,4.2,7.39Z"/>
            <path class="cls-23" d="m3329.21,3288.13l791.56,459.87c2.79,1.62,6.38-.5,6.38-3.78v-28.39c0-2.65-1.37-5.06-3.62-6.37l-791.97-460.11c-2.86-1.67-6.55.52-6.55,3.88v27.49c0,3.08,1.59,5.87,4.2,7.39Z"/>
            <path class="cls-114" d="m3329.21,3857.15l791.56,459.87c2.79,1.62,6.38-.51,6.38-3.78v-28.39c0-2.65-1.37-5.05-3.62-6.36l-791.97-460.11c-2.86-1.67-6.55.52-6.55,3.88v27.5c0,3.07,1.59,5.87,4.2,7.39Z"/>
            <path class="cls-37" d="m3324.1,3932.37l923.26,534.4c3.38,2.04,4.46-.02,4.87-1.52v-.13c.41-6.37.68-12.86.68-19.35v-10.81c0-3.79-1.76-5.89-2.7-6.67-.41-.26-.54-.39-.54-.39l-922.45-534.03c-2.57-1.53-5.81.34-6.08,3.46-.68,7.46-1.62,14.92-2.84,22.27-.81,5.16,1.49,10.22,5.81,12.77Z"/>
            <path class="cls-81" d="m3303.97,3995.2l926.56,536.43c3.75,2.18,8.77.22,10.09-4.04,2.07-6.72,3.88-13.53,5.44-20.42.82-3.62-.8-7.29-3.93-9.11l-927.77-536.94c-2.61-1.51-5.97-.12-6.94,2.82-2.14,6.51-4.55,12.93-7.2,19.27-1.89,4.51-.35,9.6,3.76,11.99Z"/>
            <path class="cls-99" d="m3329.21,3774.11l791.56,459.87c2.79,1.62,6.38-.51,6.38-3.78v-28.39c0-2.65-1.37-5.06-3.62-6.37l-791.97-460.11c-2.86-1.67-6.55.52-6.55,3.88v27.49c0,3.07,1.59,5.87,4.2,7.39Z"/>
            <path class="cls-113" d="m3329.21,3691.07l791.56,459.87c2.79,1.62,6.38-.5,6.38-3.78v-28.39c0-2.65-1.37-5.05-3.62-6.37l-791.97-460.11c-2.86-1.67-6.55.52-6.55,3.88v27.5c0,3.07,1.59,5.87,4.2,7.39Z"/>
            <path class="cls-96" d="m4123.58,4029.38l-326.48-189.12c-1.88-1.09-4.3.35-4.3,2.55v31.63c0,2.07,1.08,3.96,2.85,4.99l325.1,188.44c2.84,1.66,6.35-.49,6.35-3.73v-28.39c0-2.7-1.35-5.09-3.51-6.36Z"/>
            <path class="cls-85" d="m3324.99,3573.12v27.58c0,2.97,1.62,5.76,4.19,7.29l424.96,247.42c2.36,1.37,5.4-.44,5.4-3.21v-30.26c0-2.2-1.14-4.21-3.02-5.29l-424.91-247.4c-2.97-1.65-6.62.5-6.62,3.88Z"/>
            <path class="cls-124" d="m4210.02,4047.72l382.79,222.47c2.78,1.62,6.37-.51,6.37-3.78v-28.39c0-2.65-1.37-5.05-3.62-6.36l-383.21-222.71c-2.86-1.67-6.55.52-6.55,3.88v27.5c0,3.07,1.59,5.87,4.21,7.39Z"/>
            <path class="cls-107" d="m4210.02,3964.68l382.79,222.47c2.78,1.62,6.37-.51,6.37-3.78v-28.39c0-2.65-1.37-5.06-3.62-6.37l-383.21-222.71c-2.86-1.67-6.55.52-6.55,3.88v27.5c0,3.07,1.59,5.87,4.21,7.39Z"/>
            <path class="cls-34" d="m4210.02,3891.44l382.79,222.47c2.78,1.62,6.37-.51,6.37-3.78v-133.99c0-2.64-1.37-5.05-3.62-6.36l-383.21-222.71c-2.86-1.67-6.55.52-6.55,3.88v133.09c0,3.07,1.59,5.87,4.21,7.39Z"/>
            <path class="cls-110" d="m4210.02,4367.62l330.37,192.26c2.78,1.62,6.37-.51,6.37-3.78v-28.39c0-2.65-1.37-5.05-3.62-6.37l-330.78-192.49c-2.86-1.67-6.55.52-6.55,3.88v27.5c0,3.07,1.59,5.87,4.21,7.39Z"/>
            <path class="cls-112" d="m4210.02,4284.58l382.79,222.47c2.78,1.62,6.37-.51,6.37-3.78v-28.39c0-2.65-1.37-5.05-3.62-6.36l-383.21-222.71c-2.86-1.67-6.55.52-6.55,3.88v27.49c0,3.07,1.59,5.87,4.21,7.39Z"/>
            <path class="cls-76" d="m4210.02,4201.54l382.79,222.47c2.78,1.62,6.37-.51,6.37-3.78v-28.39c0-2.65-1.37-5.06-3.62-6.37l-383.21-222.71c-2.86-1.67-6.55.52-6.55,3.88v27.49c0,3.07,1.59,5.87,4.21,7.39Z"/>
            <path class="cls-51" d="m4210.02,4118.5l382.79,222.47c2.78,1.62,6.37-.5,6.37-3.78v-28.39c0-2.65-1.37-5.05-3.62-6.37l-383.21-222.71c-2.86-1.67-6.55.52-6.55,3.88v27.5c0,3.07,1.59,5.87,4.21,7.39Z"/>
            <path class="cls-108" d="m3324.99,3077.69v27.58c0,2.97,1.62,5.76,4.19,7.29l705.77,411.16c3.7,2.15,8.47-.68,8.47-5.02v-24.28c0-3.68-1.91-7.03-5.04-8.85l-706.76-411.75c-2.97-1.65-6.62.5-6.62,3.88Z"/>
            <path class="cls-90" d="m3329.21,3203.26l1272.02,740.45c2.78,1.62,6.37-.51,6.37-3.78v-28.39c0-2.65-1.37-5.05-3.62-6.37l-1272.43-740.68c-2.86-1.67-6.55.52-6.55,3.88v27.5c0,3.07,1.59,5.87,4.2,7.39Z"/>
            <path class="cls-49" d="m4263.19,4581.28c37.17,27.9,63.25,120.9,63.52,175.37v47.04c0,2.03.94,3.75,2.7,4.77,19.06,10.96,132.61,76.47,153.16,88.46,1.89,1.01,4.32.93,6.22-.35,23.25-16.22,43.53-35.32,60.69-56.87,6.49-7.93,12.57-16.39,17.98-24.96.14-.14.14-.28.27-.42,34.06-57.97,35.28-186.83,27.58-191.29l-284.28-164.85s-4.69-3.06-8.1-2.72c-3.37.34-6.9,1.35-7.71,10.7,0,.54-.14.95-.14,1.36v.13c-2.3,39.42-14.05,78.92-31.89,113.61Z"/>
            <path class="cls-36" d="m4326.71,4828.84v6.89c0,6.49.41,12.83,1.35,18.88l99.04,56.03c10.5,5.94,23.31,6.35,34.7,1.42,2.06-.89,4.12-1.84,6.17-2.87l-141.26-80.36Z"/>
            <path class="cls-70" d="m3256.81,4555.87l520.05,303.34c9.86,5.75,23.01.54,26.3-10.69,10.32-35.25,24.15-69.41,41.11-102.03,44.47-84.83,110.84-158.92,193.98-212.93,14.12-9.16,28.71-15.92,43.47-20.41,7.86-2.39,9.13-13.13,2.21-17.18l-82.58-48.31-284.55-166.19-144.96-84.63c-11.01-6.43-24.16-8.98-36.88-6.15-18.89,4.2-37.64,11.95-55.53,23.65-83.13,54-149.51,128.1-193.98,213.06-16.6,31.61-30.04,64.84-40.25,99.04-3.43,11.48,1.52,23.55,11.61,29.44Z"/>
            <path class="cls-109" d="m2771.44,3819.02l491.06,286.27,159.51,92.83c2.97,1.65,6.62,1.39,9.6-.47,2.97-2.13,6.08-4.13,9.19-6.13,5.27-3.43,10.54-6.59,15.95-9.07,0,0,.41-.42.68-.57,2.16-1.29.68-2.73-.13-3.24-.27-.13-.41-.26-.41-.26l-196.42-114.25-451.99-263.58c-12.16,4.21-24.06,10.03-35.69,17.6-.4.29-.94.57-1.35.86Z"/>
            <path class="cls-64" d="m2714.31,3861.83c-2.58,2.24-2.25,6.35.61,8.02l549.3,320.11,95.91,55.8c3.59,2.09,8.13,1.55,11.33-1.3,3.81-3.39,7.68-6.76,11.61-10.07,5.25-4.42,4.85-12.48-.89-15.82l-119.72-69.64-519.1-302.65c-3.39-1.97-7.75-1.68-10.96.79-6.16,4.74-12.2,9.65-18.09,14.76Z"/>
            <path class="cls-32" d="m2666.39,3925.42l640.56,373.13c4.52,2.63,10.33,1.52,13.87-2.57,3.55-4.11,7.17-8.17,10.87-12.19,3.43-3.73,2.74-9.52-1.5-11.98l-36.23-20.98-605.91-353.04c-4.55-2.65-10.48-1.85-14.28,2.04-3.21,3.28-6.39,6.62-9.52,10.02-4.43,4.8-3.32,12.39,2.14,15.57Z"/>
            <path class="cls-79" d="m2618.3,3980.97l644.29,375.54c5.06,2.95,11.61,1.24,14.96-3.8,2.65-3.97,5.36-7.9,8.13-11.8,3.04-4.3,1.94-10.13-2.47-12.69l-643.14-374.67c-4.8-2.79-11.14-1.48-14.56,3.12-3.27,4.4-6.45,8.86-9.54,13.37-2.54,3.71-1.44,8.74,2.33,10.93Z"/>
            <path class="cls-101" d="m2578.91,4041.73c0,.14.14.13.27.26l648.27,377.57c4.87,2.8,11.36.68,14.06-4.55,1.62-3.44,3.52-7.02,5.27-10.46.81-1.52,1.62-3.03,2.43-4.55,2.57-4.96-.41-7.96-1.62-8.87-.41-.26-.54-.39-.54-.39l-651.92-379.6c-2.03-1.28-4.87-.5-6.08,1.56-4.19,7.04-8.25,14.35-11.9,21.64,0,0-.14.14-.14.54-.41,1.37-1.21,4.78,1.89,6.83Z"/>
            <path class="cls-16" d="m2549.14,4108.12l656.87,382.67c1.98,1.15,4.53.11,5.25-2.12,2.76-8.52,5.76-16.97,8.98-25.34.8-2.06.04-4.34-1.82-5.42l-655.4-381.98c-2.16-1.26-5.05-.25-6.03,2.13-3.41,8.28-6.6,16.63-9.63,25.05-.69,1.91.06,4.02,1.77,5.01Z"/>
            <path class="cls-118" d="m2519.01,4225.47c-.52,4.57,1.7,8.95,5.6,11.21l1250.45,727.16c2.7,1.66,6.35-.49,6.35-3.74v-28.39c0-2.7-1.35-5.09-3.65-6.36l-1247.7-725.63c-3.25-1.88-7.53.19-8.12,3.97-1.11,7.21-2.1,14.48-2.94,21.77Z"/>
            <path class="cls-88" d="m2514.33,4325.44c-.25,3.5,1.42,6.77,4.4,8.5l1256.32,730.61c.68.52,1.49.62,2.3.6,2.16-.21,4.05-1.9,4.05-4.33v-28.39c0-1.35-.4-2.69-1.08-3.75-.54-1.06-1.49-1.98-2.57-2.61l-1254.8-729.73c-3.3-1.92-7.46.57-7.53,4.44-.15,8.24-.52,16.45-1.1,24.67Z"/>
            <path class="cls-120" d="m2500.32,4415.85c-1.07,4.29.69,8.66,4.42,10.83l1247.6,725.44c3.11,1.79,7.16.16,8.11-3.26,2.16-7.51,4.19-15.15,5.94-22.65.81-3.14-.68-6.33-3.38-7.99l-1249.58-726.69c-3.4-1.97-7.75.13-8.55,4.06-1.37,6.79-2.9,13.54-4.58,20.25Z"/>
            <path class="cls-119" d="m2472.8,4498.24c-2.07,4.84-.37,10.32,4.05,12.89l1244.13,723.6c2.7,1.53,6.22.46,7.57-2.43,3.38-6.6,6.35-13.47,9.33-20.2,1.49-3.57.14-7.57-3.11-9.49l-1245.76-724.48c-3.45-2-7.93-.31-9.42,3.52-2.17,5.57-4.44,11.09-6.79,16.59Z"/>
            <path class="cls-50" d="m2431.02,4577.18c-2.06,3.21-1.15,7.36,2.04,9.22l1243.85,723.42c2.57,1.4,5.81.61,7.57-1.89,4.32-6.23,8.65-12.6,12.84-18.97,1.89-2.9.94-6.79-1.89-8.45l-1243.83-723.42c-3.44-2-7.89-.71-9.97,2.83-3.42,5.82-6.96,11.57-10.61,17.26Z"/>
            <path class="cls-69" d="m2378.31,4646.81c-2.65,2.97-2.05,7.47,1.28,9.41l1240.68,721.67c2.43,1.27,5.41.89,7.43-1.07,5.41-5.6,10.82-11.33,16.09-17.19,2.57-2.93,1.89-7.36-1.35-9.28l-1239.82-721.07c-3.65-2.12-8.36-1.19-11.14,2.18-4.3,5.19-8.69,10.33-13.17,15.36Z"/>
            <path class="cls-59" d="m2971.87,5090.86c-3.75,3.01-3.51,8.67.52,11l578.13,336.06c2.16,1.27,4.87,1.05,7.03-.38,6.89-5.11,13.65-10.21,20.41-15.58,2.84-2.26,2.57-6.71-.54-8.5l-579.06-336.56c-3.54-2.06-8.05-1.55-11.25,1.23-5,4.34-10.09,8.59-15.24,12.74Z"/>
          </g>
          <path class="cls-14" d="m4739.38,2914.75c-51.72,25.69-90.46,78.24-90.46,143.6v1588.63c0,148.45-48.9,235.23-129.46,288.56-83.81,55.66-192.8-.77-192.8-99.75v-79.24c0-53.48-6.75-110.54-43.15-152.45-31.4-36.15-79.68-58.83-127.96-54.18-41.82,4.03-80.04,25.39-113.87,50.3-103.59,76.25-178.05,191.1-205.39,316.79-22.4,102.98-14.28,212.12-48.5,311.81-39.16,114.09-129.56,203.11-225.72,275.94-59.21,44.84-289.7,207.12-289.7,207.12l.88,10.41s188.36-130.98,280.96-198.79c92.6-67.81,187.17-156.01,232.48-261.46,56.86-132.34,34.01-279.15,80.28-415.55,34.83-102.67,109.6-191.46,200.55-250.46,40.99-26.59,86.19-48.94,133.39-36.27,39.86,10.7,70.52,44.07,88.02,81.45,25.78,55.07,27.99,113.18,29,172.49.78,45.81,6.29,92.17,45.62,121.58,71.42,53.4,122.33,29.76,157.95,11.15,11.39-5.95,47.83-24.64,90.98-93.29,51.17-81.4,44.52-223.49,44.52-223.49,0,0,2.46-1552.82,2.46-1572.65,0-17.48,6.16-95.06,79.92-132.72l261.15-150.84v-8.23l-261.15,149.54Z"/>
          <text class="cls-12" transform="translate(3353.31 2550.22) rotate(30) scale(1.15 .87) skewX(23.41)"><tspan x="0" y="0">JUAN PÉREZ </tspan></text>
          <g>
            <path class="cls-4" d="m4302.69,3187.35c0,38.78,31.43,88.3,70.22,110.61,38.78,22.31,70.22,8.96,70.22-29.82s-31.44-88.3-70.22-110.61c-38.78-22.31-70.22-8.96-70.22,29.83Z"/>
            <path class="cls-4" d="m4213.94,3382.37l317.8,182.82c-.36-87.65-71.1-199.08-158.9-249.59-43.73-25.15-83.54-30.28-112.33-18.05-28.79,12.23-46.57,41.11-46.57,84.83Z"/>
          </g>
          <polygon class="cls-115" points="4217.77 3533.65 4232.83 3572.86 4266.5 3597.19 4242.14 3606.88 4247.89 3643.73 4217.77 3610.51 4187.65 3608.96 4193.4 3578.74 4169.04 3540.92 4202.71 3555.47 4217.77 3533.65"/>
          <polygon class="cls-115" points="4348.56 3609.53 4363.62 3648.74 4397.3 3673.07 4372.93 3682.76 4378.68 3719.61 4348.56 3686.39 4318.44 3684.84 4324.2 3654.62 4299.83 3616.8 4333.5 3631.35 4348.56 3609.53"/>
          <polygon class="cls-115" points="4479.36 3685.41 4494.42 3724.62 4528.09 3748.95 4503.72 3758.64 4509.48 3795.49 4479.36 3762.27 4449.24 3760.72 4454.99 3730.5 4430.62 3692.68 4464.3 3707.23 4479.36 3685.41"/>
        </g>
        <g>
          <g class="cls-72">
            <path class="cls-24" d="m3837.23,1385.96c-3.25-.57-6.52-1.76-9.65-3.56l-575.52-331.13c-13.88-7.98-22.86-22.81-22.86-37.76V498.11c0-8.84,4.37-16.3,11.7-19.98,7.31-3.65,16.58-3.01,24.75,1.69l574.64,330.63c13.9,7.99,22.88,22.82,22.88,37.77v516.35c0,8.61-4.27,15.89-11.4,19.47-4.37,2.19-9.43,2.82-14.55,1.92Z"/>
          </g>
          <polygon class="cls-115" points="3535.85 770.41 3579.8 884.85 3678.08 955.88 3606.96 984.14 3623.75 1091.72 3535.85 994.75 3447.94 990.21 3464.72 902.02 3393.61 791.63 3491.89 834.1 3535.85 770.41"/>
        </g>
        <path class="cls-55" d="m5337.2,2163.43c14.81,33.26-.15,60.23-33.41,60.23s-72.23-26.96-87.04-60.23c-14.81-33.26.15-60.23,33.41-60.23s72.23,26.97,87.04,60.23Z"/>
        <path class="cls-55" d="m6434.29,4831.51c14.81,33.26-.15,60.23-33.41,60.23s-72.23-26.97-87.04-60.23c-14.81-33.26.15-60.23,33.41-60.23s72.23,26.96,87.04,60.23Z"/>
        <path class="cls-55" d="m2533.66,1203.59c14.81,33.26-.15,60.23-33.41,60.23s-72.23-26.96-87.04-60.23c-14.81-33.26.15-60.23,33.41-60.23s72.23,26.96,87.04,60.23Z"/>
        <g>
          <line class="cls-54" x1="4114.65" y1="1148.56" x2="4114.65" y2="1258.63"/>
          <line class="cls-54" x1="4166.27" y1="1229.92" x2="4063.03" y2="1170.52"/>
        </g>
        <g>
          <line class="cls-54" x1="5799.49" y1="1710.1" x2="5799.49" y2="1820.16"/>
          <line class="cls-54" x1="5851.11" y1="1791.46" x2="5747.87" y2="1732.06"/>
        </g>
        <g>
          <line class="cls-54" x1="2871.58" y1="724.44" x2="2871.58" y2="834.51"/>
          <line class="cls-54" x1="2923.2" y1="805.8" x2="2819.97" y2="746.4"/>
        </g>
        <g>
          <line class="cls-54" x1="6788.66" y1="4596.91" x2="6788.66" y2="4706.97"/>
          <line class="cls-54" x1="6840.27" y1="4678.27" x2="6737.04" y2="4618.87"/>
        </g>
        <g>
          <line class="cls-54" x1="6299.05" y1="3724.4" x2="6299.05" y2="3834.47"/>
          <line class="cls-54" x1="6350.67" y1="3805.76" x2="6247.43" y2="3746.37"/>
        </g>
        <g>
          <path class="cls-3" d="m6147.79,5779.82l1050.34,606.41c41.32,23.85,41.32,83.49,0,107.35l-1553.77,897.07c-56.67,32.72-126.43,32.97-183.34.65l-1059.77-601.83c-41.66-23.66-41.87-83.61-.38-107.57l1562.45-902.08c57.07-32.95,127.4-32.95,184.48,0Z"/>
          <path class="cls-14" d="m6147.9,5498.58l1081.32,617.65s0,21.55,0,42.42c0,20.88-10.32,41.76-30.99,53.69l-1553.77,897.07c-56.67,32.72-126.43,32.97-183.34.65l-1059.77-601.83c-20.38-11.57-30.84-31.84-31.35-52.32-.53-21.38,0-43.59,0-43.59l1593.42-913.73c57.08-32.95,127.4-32.95,184.48,0Z"/>
          <path class="cls-17" d="m6147.79,5456.15l1050.34,606.41c41.32,23.86,41.32,83.49,0,107.35l-1553.77,897.07c-56.67,32.72-126.43,32.97-183.34.65l-1059.77-601.83c-41.66-23.66-41.87-83.61-.38-107.57l1562.45-902.08c57.07-32.95,127.4-32.95,184.48,0Z"/>
          <polygon class="cls-73" points="6021.9 5543.75 7035.01 6128.67 5609.72 6951.56 4588.24 6371.47 6021.9 5543.75"/>
          <g>
            <g>
              <ellipse class="cls-10" cx="5657.77" cy="6342.19" rx="341.19" ry="603.08" transform="translate(-1414.31 11055.95) rotate(-81.95)"/>
              <path class="cls-9" d="m5442.21,6126.63c187.78-50.32,436.52,5.4,555.56,124.45,119.05,119.05,63.33,256.34-124.45,306.66-187.78,50.31-436.52-5.41-555.57-124.45s-63.33-256.35,124.45-306.66Z"/>
              <path class="cls-11" d="m5522.7,6207.12c117.67-31.53,273.52,3.38,348.12,77.98,74.59,74.6,39.68,160.63-77.98,192.16-117.66,31.53-273.52-3.38-348.12-77.98-74.6-74.6-39.68-160.63,77.98-192.16Z"/>
            </g>
            <polygon class="cls-115" points="5545.88 6231.05 5652.18 6280.64 5750.57 6256.07 5739.4 6332.23 5828.12 6397.98 5714.92 6395.45 5671.37 6460.66 5612.58 6382.94 5496.93 6357.5 5573.8 6311.99 5545.88 6231.05"/>
          </g>
          <g>
            <path class="cls-15" d="m4923.29,6804.72l-.02-42.45,233.21-143.32c2.57-1.29,4.71-2.57,6.63-4.28,5.78-4.28,10.07-10.49,12.85-17.55,2.78-7.28,3.64-15.63,3-24.4l78.35-48.81c1.29-.64,2.57-1.5,3.85-2.35,1.07-.85,2.14-2.14,3-3.21,47.96,20.12,107.68,31.47,172.12,29.55,150.29-4.5,270.82-77.5,275.1-164.85l.21.21-.21-7.71v-.21l-1.5-48.6v-2.57l-.21.43c-4.28-89.92-131.02-158.64-284.52-154.14-154.57,4.5-277.67,81.78-275.1,172.34l1.5,49.02c1.07,34.47,19.91,65.73,51.38,91.2l-59.08,36.82c-7.5-3.64-15.63-5.35-23.34-4.5-4.07.43-8.14,1.5-11.99,3.21-.64.43-1.28.64-1.93,1.07l-2.35,1.5c-.43.21-.64.43-.85.65-.43.21-.43.42-.86.64l-288.9,177.6v42.47l109.66,62.26Z"/>
            <path class="cls-14" d="m5118.86,6204.76c.26,8.67,1.61,17.18,3.98,25.46,23.44,81.73,146.4,141.29,292.69,136.99,146.29-4.3,265.54-71,284.13-153.96,1.88-8.4,2.48-77.89,2.48-77.89,0,0-76.59-152.46-296.67-149.41-133.16,1.85-286.61,166.57-286.61,166.57,0,0-.48,35.83,0,52.24Zm46.32-1.36c-.61-20.69,6.25-40.58,19.14-58.76,36.58-51.61,121.73-89.39,221.94-92.34,100.21-2.95,187.44,29.76,226.99,79.14,13.93,17.39,21.95,36.84,22.56,57.53,2.34,79.44-105.59,110.29-241.09,114.28-135.49,3.99-247.21-20.4-249.55-99.84Z"/>
            <g>
              <path class="cls-89" d="m5153.95,6152.52c2.39,81.09,118.73,143.46,259.85,139.31,141.13-4.15,253.6-73.25,251.21-154.35-2.39-81.09-118.73-143.46-259.85-139.31-141.12,4.15-253.59,73.25-251.21,154.35Z"/>
              <path class="cls-7" d="m5262.52,6026.58c254.52,5.58,331.09,130.85,352.36,201.71,32.44-25.68,51.16-57.24,50.18-90.85-2.45-81.05-118.04-140.56-259.17-136.45-51.85,1.57-103.58,9.22-143.37,25.59Z"/>
              <path class="cls-5" d="m5179.19,6155.65c2.11,71.76,105.08,126.95,230.01,123.29,124.94-3.66,224.43-64.8,222.33-136.65-.09-2.11-.18-4.12-.46-6.23-6.96,67.37-102.79,122.92-221.87,126.5-121.18,3.66-221.68-48.24-229.56-116.79-.46,3.2-.55,6.59-.46,9.88Z"/>
            </g>
            <path class="cls-14" d="m5144.64,6101.96l66.18-68.78,190.94-47.22,193.39,35.92,70.11,64.77,18.24,40.39-27.68,9.69s-32.63-131.36-253.3-124.87c-220.67,6.49-245.51,139.55-245.51,139.55l-28.2-8.05,15.83-41.39Z"/>
            <path class="cls-2" d="m5118.86,6152.52c.26,8.67,1.61,17.18,3.98,25.46,23.44,81.73,146.4,141.3,292.69,136.99,146.29-4.3,265.54-70.99,284.13-153.96,1.88-8.4,2.73-16.98,2.48-25.65-2.78-94.49-135.58-167.23-296.67-162.49-161.09,4.74-289.39,85.16-286.61,179.65Zm46.32-1.36c-.61-20.69,6.25-40.57,19.14-58.75,36.58-51.62,121.73-89.39,221.94-92.34,100.21-2.94,187.44,29.76,226.99,79.13,13.93,17.39,21.95,36.84,22.56,57.53,2.34,79.44-105.59,147.07-241.09,151.06-135.49,3.99-247.21-57.18-249.55-136.62Z"/>
            <path class="cls-4" d="m5118.86,6152.52c.26,8.67,1.61,17.18,3.98,25.46,23.44,81.73,146.4,141.3,292.69,136.99,146.29-4.3,265.54-70.99,284.13-153.96,1.88-8.4,2.73-16.98,2.48-25.65-2.78-94.49-135.58-167.23-296.67-162.49-161.09,4.74-289.39,85.16-286.61,179.65Zm46.32-1.36c-.61-20.69,6.25-40.57,19.14-58.75,36.58-51.62,121.73-89.39,221.94-92.34,100.21-2.94,187.44,29.76,226.99,79.13,13.93,17.39,21.95,36.84,22.56,57.53,2.34,79.44-105.59,147.07-241.09,151.06-135.49,3.99-247.21-57.18-249.55-136.62Z"/>
            <path class="cls-45" d="m5083.88,6354.75l5.56,8.26s.08.04.08.04l24.99,37,6.42,9.51,109.58-68.37h.04c1.45-.7,2.78-1.52,3.97-2.49,3.4-2.64,6-6.28,7.59-10.5.8-2.11,1.39-4.38,1.68-6.76h.04c.94-6.82-.18-14.44-3.63-21.71-4.27-8.92-11.22-15.47-18.8-18.56-4.06-1.68-8.3-2.38-12.42-1.93-2.45.24-4.84.88-7.11,1.97-.4.18-.8.39-1.17.61l-1.49.94c-.2.09-.36.22-.52.34l-114.85,71.64Z"/>
            <path class="cls-4" d="m5083.88,6354.75l5.56,8.26s.08.04.08.04l131.9-81.88c-4.06-1.68-8.3-2.38-12.42-1.93-2.45.24-4.84.88-7.11,1.97-.4.18-.8.39-1.17.61l-1.49.94c-.2.09-.36.22-.52.34l-114.85,71.64Z"/>
            <path class="cls-14" d="m5114.51,6400.05l6.42,9.51,109.58-68.37h.04c1.45-.7,2.78-1.52,3.97-2.49,3.4-2.64,6-6.28,7.59-10.5.8-2.11,1.39-4.38,1.68-6.76l-129.29,78.61Z"/>
            <path class="cls-94" d="m4735,6546.21l15.93,28.05,40.91,72.09,333.58-206.16s.04,0,.04-.04h.08c2.54-1.22,4.83-2.64,6.91-4.34,5.96-4.59,10.48-10.91,13.26-18.27,5.47-14.36,4.81-32.59-3.34-49.62-3.05-6.38-6.9-12.07-11.26-16.9,0,0-.04-.04-.04-.08-12.05-13.31-28.1-20.37-43.07-18.7-4.28.41-8.46,1.52-12.38,3.44-.73.27-1.41.65-2.06,1.04l-2.57,1.63c-.36.17-.64.39-.92.6-.24.17-.44.38-.68.55l-334.38,206.71Z"/>
            <path class="cls-80" d="m4735,6546.21l15.93,28.05,40.12-12.07,340.11-211.05s0-.04-.05-.12c0,0-.04-.04-.04-.08-12.05-13.31-28.1-20.37-43.07-18.7-4.28.41-8.46,1.52-12.38,3.44-.73.27-1.41.65-2.06,1.04l-2.57,1.63c-.36.17-.64.39-.92.6-.24.17-.44.38-.68.55l-334.38,206.71Z"/>
            <path class="cls-111" d="m4718.15,6618.44c13.83,28.83,43.64,43.29,66.71,32.27h.07c2.53-1.22,4.84-2.64,6.93-4.34,5.93-4.6,10.45-10.93,13.22-18.29,5.5-14.35,4.82-32.59-3.31-49.61-11.47-23.91-33.93-37.94-54.4-35.7-4.27.41-8.44,1.53-12.38,3.43-.7.31-1.4.68-2.04,1.06l-2.59,1.64c-.35.15-.63.38-.91.6-18.65,13.25-23.92,42.57-11.31,68.94Z"/>
          </g>
          <path class="cls-4" d="m5702.19,5876.09l332.24,191.13c105.66-80.8,87.83-144.27,16.22-193.41-112.9-77.46-242.6-59.12-348.46,2.28Z"/>
          <g class="cls-25">
            <path class="cls-14" d="m6399.85,6282.13c-1.74,0-3.49-.44-5.1-1.37l-326.24-190.23c-4.88-2.81-6.56-9.05-3.73-13.93,2.79-4.86,9.05-6.56,13.93-3.73l326.24,190.23c4.88,2.81,6.56,9.05,3.73,13.93-1.87,3.27-5.32,5.1-8.83,5.1Z"/>
            <path class="cls-14" d="m6437.21,6260.72c-1.74,0-3.49-.44-5.1-1.37l-326.24-190.23c-4.88-2.81-6.56-9.05-3.73-13.93,2.79-4.86,9.05-6.56,13.93-3.73l326.24,190.23c4.88,2.81,6.56,9.05,3.73,13.93-1.87,3.27-5.32,5.1-8.83,5.1Z"/>
            <path class="cls-14" d="m6474.56,6239.31c-1.74,0-3.49-.44-5.1-1.37l-326.24-190.23c-4.88-2.81-6.56-9.05-3.73-13.93,2.79-4.86,9.05-6.56,13.93-3.73l326.24,190.23c4.88,2.81,6.56,9.05,3.73,13.93-1.87,3.27-5.32,5.1-8.83,5.1Z"/>
            <path class="cls-14" d="m6511.91,6217.91c-1.73,0-3.49-.44-5.1-1.37l-326.24-190.23c-4.88-2.81-6.56-9.05-3.73-13.93,2.79-4.86,9.05-6.56,13.93-3.73l326.24,190.23c4.88,2.81,6.56,9.05,3.73,13.93-1.87,3.27-5.32,5.1-8.83,5.1Z"/>
            <path class="cls-14" d="m6549.27,6196.5c-1.73,0-3.49-.44-5.1-1.37l-326.24-190.23c-4.88-2.81-6.56-9.05-3.73-13.93,2.79-4.86,9.05-6.56,13.93-3.73l326.24,190.23c4.88,2.81,6.56,9.05,3.73,13.93-1.87,3.27-5.32,5.1-8.83,5.1Z"/>
          </g>
          <path class="cls-4" d="m6175.06,5737.74c-41.61-20.1-100.54-10.72-131.63,20.97-31.08,31.68-22.55,73.65,19.06,93.76,41.61,20.1,100.54,10.72,131.63-20.96,31.09-31.68,22.55-73.65-19.05-93.76Z"/>
        </g>
        <g>
          <polygon class="cls-43" points="6061.95 4289.66 6061.95 4953.15 6017.06 4977.54 5398.87 4512.69 5302.37 3902.38 5347.26 3877.99 6061.95 4289.66"/>
          <polygon class="cls-43" points="6061.95 4289.66 6061.95 4953.15 6017.06 4977.54 5398.87 4512.69 6017.06 4314.05 6061.95 4289.66"/>
          <polygon class="cls-20" points="6017.06 4314.05 6017.06 4977.54 5302.37 4565.87 5302.37 3902.38 6017.06 4314.05"/>
          <g>
            <polygon class="cls-4" points="5391.2 4120.88 5391.2 4176.22 5649.46 4465.77 5908.28 4471.94 5908.28 4416.88 5391.2 4120.88"/>
            <polygon class="cls-4" points="5649.46 4497.91 5391.2 4208.36 5391.2 4491.21 5908.28 4787.22 5908.28 4504.08 5649.46 4497.91"/>
          </g>
        </g>
        <g>
          <polygon class="cls-66" points="2891.67 2138.97 2891.67 2606.2 2841.95 2633.8 2406.61 2306.45 2338.66 1876.67 2388.38 1849.07 2891.67 2138.97"/>
          <polygon class="cls-78" points="2891.67 2138.97 2891.67 2606.2 2841.95 2633.8 2406.61 2306.45 2841.95 2166.56 2891.67 2138.97"/>
          <polygon class="cls-20" points="2841.95 2166.56 2841.95 2633.8 2338.66 2343.9 2338.66 1876.67 2841.95 2166.56"/>
          <polyline class="cls-56" points="2465.15 2205.17 2533.22 2340.07 2729.48 2196.42"/>
        </g>
        <g>
          <g>
            <path class="cls-104" d="m1463.96,5096.61s60.35,10.96,73.55.74c13.2-10.22,71.21-65.91,79.18-74.01,7.97-8.1,122.44-35.93,131.97-35.93s50.59,4.4,49.86,10.26c-.73,5.86-72.41,73.16-80.56,79.84-8.15,6.67-34.07,28.04-38.21,41.13-4.14,13.09-41.62,57.71-68.78,59.37-13.29.81-33.2-1.84-33.2-1.84l-133.82,19.06"/>
            <path class="cls-75" d="m1856.62,4889.45s-27.84,28.72-40.19,32.47c-6.49,2.58-14.46,2.84-21.3,3.84-12.17,1.76-68.27,11.61-93.44,26.92-15.78,9.6-50.3,52.59-54.93,63.7-.52,1.25-1.05,2.57-.89,3.91.18,1.48,1.18,2.74,2.28,3.75,13.08,11.96,30.47-.88,40.17-10.63,5.42-5.45,23.87-20.66,26.53-16.4,3.2,23.4-16.33,70.25-30.13,85.84-18.69,21.12-71.15,44.38-62.01,54.72,3.59,4.06,14.08,7.18,33.86,2.61,23.65,0,55.69-.53,76.08-13.24,24.73-15.41,40.15-37.47,58.03-57.49,12.43-13.93,22.3-32.24,40.07-49.8,11.06-10.93,64.48-42.47,64.48-42.47l-38.62-87.72Z"/>
            <path class="cls-4" d="m1974.33,3769.61c-115.45,10.52-147.77,67.87-167.8,109.69-40.01,83.53-20.38,202.05-18.96,250.17,5.05,171.55,22.04,342.5,39.01,513.28,10.84,109.08,21.68,218.15,32.52,327.22.7,7.02,1.45,14.23,4.72,20.49,9.96,19.07,39.28,19.5,56.17,6.18,16.89-13.32,24.35-35.05,30.65-55.62,27.2-88.72,48.87-180.88,43-273.5-6.1-96.32-41.61-188.21-58.04-283.32-21.63-125.22-10.23-256.11-47.9-377.47"/>
            <path class="cls-102" d="m1941.58,4090.22c6.17,28.82-109.43-29-104.19,0,4.56,25.24,25.99,358.41,30.51,399.02,7.51,67.5-16.64,156.82-10.86,224.49,3.25,38.09,7.99,76.35,19.88,112.67,4.54,13.87,11.55,28.86,25.27,33.83,6.67,2.42,14.09,2.03,20.95.23,28.99-7.62,45.73-37.09,59.24-63.86"/>
            <path class="cls-40" d="m2646.45,6532.78c-77.07-160.11-257.84-256.46-413.71-324.2-75.02-32.6-157.36-51.04-238.21-61.31-80.19-10.18-167.66-10.83-234.57,34.53-66.91,45.35-95.95,152.01-37.95,208.31,26.4,25.62,63.84,35.56,96.01,53.44,63.71,35.42,104.23,100.23,147.53,158.87,60.64,82.1,132.78,157.48,220.91,208.98,88.13,51.5,193.61,77.62,293.9,58.63,63.95-12.11,126.58-44.39,162.41-98.73,45.79-69.44,39.76-163.57,3.67-238.53Z"/>
            <path class="cls-123" d="m2521.07,6421.41s-8.21,32.61-12.92,60.11c-4.71,27.5-6.19,62.76-9.33,91.84-3.14,29.07-30.15,98.51-42.73,115.8-12.57,17.29-33.88,36.54-60.87,43.31-38.63,9.7-82.5,2.3-93.72-1.87-17.19-6.38-23.98-23.95-23.98-23.95"/>
            <path class="cls-123" d="m1803.68,6315.1c0,18.1,26.97,30.74,54.69,33,26.02,2.07,56.93-3.68,89.74-12.54,32.63-8.86,46.54-16.65,69.61-26.31,25.86-10.82,51.11-4.52,51.11-4.52,0,0,0,3.01.19,6.41,0,0,64.12,9.24,124.65-20.93.19,0,.19-.19.38-.19,0,0,.57-14.33-.38-26.59-.57-10.56-2.45-26.02-2.45-26.02l-387.53,64.68v13.01Z"/>
            <path class="cls-44" d="m2266.56,6675.68c.38,3.4.94,6.79,1.51,9.99,3.77,18.48,13.77,32.44,33.38,39.22,36.39,12.45,103.72,5.85,136.91-30.17,33.19-36.02,56.76-128.8,56.76-184.24s29.04-106.74,29.04-106.74h-150.86c-1.13,1.32-2.45,3.02-3.58,4.9-26.02,36.4-93.73,174.81-100.32,219.51-2.64,17.54-3.96,33.57-2.83,47.52Z"/>
            <path class="cls-91" d="m2266.56,6675.68c.76-.94,1.32-2.26,1.51-3.77,6.6-36.02,41.11-105.42,59.4-142,18.29-36.58,52.43-103.15,52.43-103.15,0,0-4.53-7.92-10.18-18.1-26.02,36.4-93.73,174.81-100.32,219.51-2.64,17.54-3.96,33.57-2.83,47.52Z"/>
            <path class="cls-68" d="m2268.04,6685.6c3.77,18.48,13.77,32.43,33.38,39.22,36.4,12.44,103.72,5.85,136.91-30.18,33.19-36.02,56.76-128.8,56.76-184.24s29.04-106.74,29.04-106.74h-61.29l-4.9,31.87s-1.7,128.8-32.25,192.54c-30.74,63.55-86.56,76.94-110.89,75.43-24.33-1.7-39.79-4.9-46.58-17.73,0,0,0-.19-.19-.19Z"/>
            <path class="cls-44" d="m1803.59,6309.08c.94,9.05,6.22,15.84,13.58,19.42,25.27,11.51,78.26,7.73,110.51,0,32.25-7.92,92.22-36.21,123.9-39.6,31.68-3.21,93.35-8.86,108.81-13.2,15.65-4.53,31.68-12.82,35.08-42.81,3.21-29.98-11.69-54.5-11.69-54.5l-24.89,1.51-146.71,9.43-3.4.19s-51.11,18.29-74.87,26.78c-23.95,8.3-73.92,16.03-106.74,46.58-5.47,5.09-9.81,9.99-13.2,14.71l-.19.19c-8.49,11.88-11.31,22.63-10.18,31.3Z"/>
            <path class="cls-91" d="m1813.96,6277.59c23.95-20.55,74.11-35.83,115.03-46.39,41.3-10.75,81.47-23.57,81.47-23.57,0,0,.94-7.92,1.7-18.29l-3.4.19s-51.11,18.29-74.87,26.78c-23.95,8.3-73.92,16.03-106.74,46.58-5.47,5.09-9.81,9.99-13.2,14.71Z"/>
            <path class="cls-68" d="m1803.57,6309c.94,9.05,6.22,15.84,13.58,19.43,25.27,11.5,78.26,7.73,110.51,0,32.25-7.92,92.22-36.21,123.9-39.6,31.68-3.21,93.35-8.86,108.81-13.2,15.65-4.52,31.68-12.82,35.08-42.81,3.21-29.99-11.69-54.5-11.69-54.5l-24.89,1.51.76,7.92s23.01,31.87,7.73,56.01c-15.27,24.14-72.42,20.55-107.3,24.71-34.7,4.15-84.86,32.43-133.14,40.73-48.28,8.3-106.17,15.27-123.14,0l-.19-.19Z"/>
            <path class="cls-80" d="m1916.36,5388.62c6.04,24.52,10.94,48.47,15.09,71.47.19.75.19,1.32.19,1.32,3.96,22.63,7.17,44.32,10.18,64.68.19.76.19,1.32.38,2.07.38,2.26.95,5.85,1.7,11.13.76,5.28,1.51,10.37,2.26,15.28,6.41,41.68,18.1,127.67,28.29,244.59.19.94.19,1.7.19,2.64,4.15,38.85,7.73,91.46,10.75,147.28.76,12.82,1.51,25.83,2.07,39.04,3.58,72.98,6.41,147.47,8.11,201.97.38,13.58,8.11,26.02,20.18,32.44,9.62,5.28,19.8,8.11,31.87,8.49,32.25.94,58.08-3.77,78.45-10.37,19.61-6.6,34.13-15.27,44.13-22.44,11.13-8.3,17.35-21.5,16.78-35.27-1.32-46.2-4.15-168.59.76-290.98,6.03-155.2,18.1-447.31,18.1-447.31l-54.69-489.74-101.65-22.63c5.28-28.47,10.94-61.1,14.9-84.11,3.02-17.73,5.09-29.8,5.09-29.8h-198.95s-.19,2.83-.38,8.3c-2.45,52.24-12.82,345.29,46.2,581.96Z"/>
            <path class="cls-47" d="m1916.36,5388.62c6.04,24.52,10.94,48.47,15.09,71.47-1.89-16.79-20.18-178.59-28.48-261.18-8.67-87.31,5.47-360,5.47-360,0,0-17.35-14.71-38.28-32.25-2.45,52.24-12.82,345.29,46.2,581.96Z"/>
            <path class="cls-94" d="m2003.19,4873.97s4.52,281.74,72.79,572.34c41.3,175.38,49.78,525.01,50.16,774.31,19.61-6.6,34.13-15.27,44.13-22.44,11.13-8.3,17.35-21.5,16.78-35.27-1.32-46.2-4.15-168.59.76-290.98,6.03-155.2,18.1-447.31,18.1-447.31l-54.69-489.74-101.65-22.63c5.28-28.47,10.94-61.1,14.9-84.11l-61.29,45.83Z"/>
            <path class="cls-80" d="m2089.37,4898.49s-16.78,354.91,116.73,744.32v.38c24.89,62.23,44.13,112.58,49.41,133.89,11.13,43.94,61.48,485.03,73.55,591.58,1.88,17.35,7.54,34.13,16.78,48.84,18.29,29.23,44.69,54.12,92.4,49.6,14.14-1.32,27.72-4.34,40.17-7.92,20.56-6.04,38.47-14.15,51.3-20.75,13.39-6.79,21.5-20.55,21.12-35.64-3.4-114.09-18.29-614.58-27.72-677-10.56-70.53-53.93-224.41-74.3-506.72-2.83-40.73-.76-82.22,12.63-120.88,36.02-104.66,3.21-196.5,3.21-196.5,0,0-12.63,4.71-29.61,11.13.57-26.78,1.7-38.85,1.7-38.85l-9.62.19-348.31,7.35,10.56,16.97Z"/>
            <path class="cls-94" d="m2314.91,5109.7c-10.37,99.19,102.78,539.9,114.66,653.05,11.88,113.15,48.66,696.43,48.66,696.43h.19c20.56-6.04,38.47-14.15,51.3-20.75,13.39-6.79,21.5-20.55,21.12-35.64-3.4-114.09-18.29-614.58-27.72-677-10.56-70.53-53.93-224.41-74.3-506.72-2.83-40.73-.76-82.22,12.63-120.88,36.02-104.66,3.21-196.5,3.21-196.5,0,0-12.63,4.71-29.61,11.13.57-26.78,1.7-38.85,1.7-38.85l-9.62.19c-63.17,34.89-116.73,68.27-116.73,68.27,0,0,14.71,68.45,4.52,167.27Z"/>
            <path class="cls-33" d="m2466.66,4892.8s3.3,11.29,5.54,27.14c.71,5.05-1.32,10.14-5.56,12.97-9.82,6.57-31.99,19.39-75.12,35.74-48.72,18.47-113.34,21.31-160.1,16.99-19.67-1.82-212.05-44.27-327.01-117-29.17-18.46-43.99-52.95-38.36-87l.11-.69c3.83-22.69,600.49,111.84,600.49,111.84Z"/>
            <path class="cls-4" d="m1893.69,4382.35c.62,21.26,1.24,42.69,1.85,64.08,1.38,47.84-2.14,95.66-10.45,142.78-7.05,39.97-15.51,88.99-21.01,124.47-10.94,70.34,8.11,121.45,43.18,142.57.19,0,.57.19.76.38,112.77,69.77,243.27,101.65,313.04,114.85,11.13,2.07,22.44,3.58,33.75,4.53,24.33,1.88,48.66,1.13,72.61-3.02,9.8-1.51,19.61-3.58,29.42-6.41l9.05-2.83c10.65-3.33,20.98-8.05,30.4-14.05,45.97-29.28,49.56-51.55,52.77-77.65,4.98-43.64-17.23-97.1-25.91-139.49-28.48-139.15,43.01-263.42,82.53-391.64,18.31-59.44,36.05-119.16,50.8-179.6,9.02-36.97,22.24-79.33,18.33-117.87-.1-.81-.21-1.62-.34-2.42-2.07-12.26-4.34-21.5-6.41-27.34-7.73-21.69-30.93-47.33-57.33-70.91-26.97-24.14-57.14-45.82-77.32-58.84-.94-.57-1.7-1.13-2.64-1.7-17.91-11.51-34.51-21.88-59.22-34.33-19.99-9.99-45.45-21.49-81.47-35.64-12.82-5.09-26.02-9.62-39.41-13.77-24.7-7.54-49.97-13.77-75.62-19.05-39.41-8.29-79.39-14.71-117.68-22.06-6.6,0-13.2.19-19.8.57-47.27,3.08-137.9,28.39-137.9,28.39,0,0-41.56,77.69-64.56,123.3-36.39,72.41,38.12,340.39,58.58,472.7Z"/>
            <path class="cls-102" d="m2524.29,4017.04c-58.65-100.49-205.18-149.67-230.79-157.97-78.69,115.85-169.72,118.56-169.72,118.56l-3.97-49.76-25.08,18.29-16.97,268.35-29.04-67.32,22.25-228.18,85.43-109.19,94.29-11.32c13.39,4.15,26.59,8.68,39.41,13.77,57.29,22.51,87.85,37.98,112.56,52.56.83.49,1.66.98,2.48,1.47,3.08,1.83,6.08,3.66,9.03,5.49,3.43,2.12,6.88,4.27,10.26,6.42,2.11,1.34,4.22,2.68,6.35,4.04.94.56,1.7,1.13,2.64,1.7,20.18,13.01,50.35,34.7,77.32,58.84v.19c26.4,23.38,49.6,49.03,57.33,70.72.5,1.38,1,2.97,1.51,4.76,1.63,5.67,3.32,13.23,4.9,22.58-.03.02-.07.02-.1.03,13.81,81.02-33.09,79.13-50.07-24.01Z"/>
            <path class="cls-102" d="m2078.43,3886.59c-12.97,11.5-24.8,24.28-35.3,38.07-10.41,13.68-17.55,29.19-27.1,43.18-3.29-13.3-1.79-30-1.8-43.74,0-15.59.8-31.21,3.27-46.62,4.69-29.27,15.43-57.55,31.34-82.56,4.74,4.07,5.09,11.12,7.3,16.96,3.56,9.39,12.32,16.16,15.44,25.7,3.27,10-.25,21.27,3.01,31.27"/>
            <path class="cls-104" d="m2270.72,3670.37v106.04s-108.48,78.28-166.1,66.94c-24.79-4.88-37.8-36.6-32.62-81.37l52.42-10.61,146.3-81Z"/>
            <path class="cls-4" d="m2091.65,3837.22l-61.69,72.43s-2.34-86.97,38.92-131.36c40.15-43.2,41.84-5.89,41.84-5.89,0,0-38.01,43.9-19.07,64.82Z"/>
            <path class="cls-75" d="m1971.18,3529.32s-8.82,88.76,9.51,169.93c18.33,81.17,23.89,99.49,56.62,113.9,32.73,14.4,62.17,15.97,117.16-19.37,54.98-35.35,85.09-92.95,85.09-92.95,0,0,7.84,5.15,27.49-17.02,30.77-34.69,36.66-52.04,36.66-99.17s-11.78-106.37-48.44-167.9c-36.66-61.53-149.24-41.89-200.3-15.71-51.06,26.18-74.07,75.66-83.78,128.3Z"/>
            <path class="cls-117" d="m1926.71,3533.29c56.2,99.38,196.31,33.94,196.31,33.94,10.37,43.19,40.55,47.15,55.07,55.07,14.33,7.92,17.54,49.78,17.54,49.78h13.2s.57-41.86,7.16-62.99c6.6-20.93,45.83-37.15,65.44-6.41,17.73,27.53-2.64,58.27-14.33,81.09-3.77,36.21,3.58,51.29,3.58,51.29,0,0,21.31-21.12,35.64-64.31,14.33-43.18,24.89-133.51,0-230.45-2.64-10.18-6.41-19.42-11.5-27.91-43-72.6-165.57-86.75-213.66-70.34-41.49,14.14-144.26,60.91-163.5,127.29-5.66,19.61-3.77,41.11,9.05,63.93Z"/>
            <path class="cls-80" d="m1922.57,5514.66c.75,5.28,1.51,10.37,2.26,15.27-.76-6.04-1.51-11.12-2.26-15.27Z"/>
            <path class="cls-80" d="m1920.49,5501.46c.19.76.19,1.32.38,2.08-.19-1.32-.38-2.08-.38-2.08Z"/>
            <path class="cls-21" d="m2356.27,4266.1s21.69-90.57,18.55-150.28c-3.14-59.72-36.14-6.29-39.29,42.43-3.14,48.72-31.84,154.01-31.84,154.01"/>
            <path class="cls-4" d="m2270.69,3765.61s6.63,8.8,11.79,21.95c4.29,10.94,7.53,24.61,7.53,24.61,0,0-44.43,91.3-166.23,130.59l-13.89-98.63s106.84-14.47,160.81-78.52Z"/>
            <path class="cls-102" d="m2337.16,4606.06c-2.45-11.75-4.01-18.78-4.01-18.78l74.52-80.93s12.28,127.24,16.68,169.67c4.4,42.42,56.15,176.84,53.8,223.98-2.36,47.14-150.72,72.98-150.72,72.98,0,0,40.15-98.31,37.97-174.62-1.18-41.46-7.96-82.87-15.08-123.66-4.13-23.66-4.88-95.9-36.25-97.13-8.03-.32-15.86,2.29-23.46,4.89-40.22,13.78-96.04,76.39-135.57,92.03-36.43,14.41-90.52,64.04-121.54,28.22,31.78-42.3,127.39-151.82,135.12-164.82,9.76-16.42,146.51-329.61,170.32-369.85,15.35,92.41,28,206.62,43.35,299.04"/>
            <path class="cls-80" d="m2109.88,3844.13l9.92,70.44-34.92,28.19-36.24-11.59-1.94-41.18,44.95-52.77s3.94,4.74,18.23,6.91Z"/>
            <path class="cls-80" d="m2084.41,3958.51c.17-5.25.33-10.49.51-15.74l-36.21-11.69c.93.3-25.02,138.35-26.69,148.74-20.75,128.98-39.11,258.5-56.66,387.96-8.11,60.16-14.33,106.17-16.6,124.47-.75,5.85-.19,11.5,1.89,16.97l36.77,96.37c1.89,5.28,90.71-86.37,90.14-95.23-1.13-18.67,1.28-475.56,6.85-651.83Zm-80.08,243.16c.1.02.36.06.48.08-.44,1.42-.67,1.82-.48-.08Z"/>
            <path class="cls-18" d="m1926.71,3533.29c56.2,99.38,196.31,33.94,196.31,33.94,10.37,43.19,40.55,47.15,55.07,55.07,14.33,7.92,17.54,49.78,17.54,49.78h13.2s.57-41.86,7.16-62.99c6.6-20.93,45.83-37.15,65.44-6.41,17.73,27.53-2.64,58.27-14.33,81.09-3.77,36.21,3.58,51.29,3.58,51.29,0,0,21.31-21.12,35.64-64.31,14.33-43.18,24.89-133.51,0-230.45-2.64-10.18-6.41-19.42-11.5-27.91-23.57,20.18-91.27,75.06-162.18,104.85-88.07,36.96-156.33,29.04-178.39,10.18-22.07-18.86-33.57-34.13-36.4-57.89l-.19-.19c-5.66,19.61-3.77,41.11,9.05,63.93Z"/>
            <path class="cls-4" d="m2335.54,4158.25c-45.53,137.16-81.75,279.09-157.47,414.19-139.47,112.69-242.18,235.2-352.51,339.45,21.12,39.69,20.58,62.95,41.7,102.64,32.11-7.7,307.66-202.16,422.75-276.68,115.09-74.52,148.94-141.21,201.9-267.68,48.49-115.81,89.48-303.8,82.57-429.16"/>
            <path class="cls-102" d="m2574.47,4041.01l-41.7,5.23c-.41,123.78-60.25,317.31-104.88,423.93-52.95,126.47-86.8,193.16-201.9,267.68-90.27,58.45-278.79,190.33-371.6,248.36,3.33,8.72,7.34,17.94,12.86,28.32,32.11-7.7,307.66-202.16,422.75-276.68,115.09-74.52,148.94-141.21,201.9-267.68,48.49-115.81,89.48-303.8,82.57-429.16Z"/>
            <path class="cls-104" d="m1635.46,5039.16c5.35.54,37.47-16.88,44.97-19.68,7.5-2.8,53.42-16.21,55.67-13.66,5.35,6.04,4.32,24.3-13.35,32.87-17.67,8.57-34.63,19.75-34.63,19.75,0,0-32.32,55.67-86.92,74.94"/>
            <path class="cls-95" d="m1722.75,5038.69c-11.93,5.87-23.44,12.58-34.6,19.8-4.96,8.21-10.91,16.17-17.12,23.61-18.75,22.25-42.19,41.43-69.84,51.28,27.63-9.9,50.89-29.21,69.67-51.42,6.26-7.45,12.12-15.28,17.22-23.58,11.18-7.19,22.72-13.86,34.67-19.7h0Z"/>
            <path class="cls-95" d="m1638.82,5033.53c4.17,2.8,14.06-1.61,18.46-3.29,17.7-7.75,36.27-13.44,54.44-19.99-12.79,4.84-42.35,14.66-54.38,20.15-4.46,1.68-14.3,6.01-18.53,3.14h0Z"/>
          </g>
          <g>
            <path class="cls-22" d="m1476.51,5101.62l30.27-5.01s19.96,13.12,23.65,25.18c9.11,29.71-1.84,65.61-1.84,65.61l-96.24,28.63"/>
            <path class="cls-98" d="m652.75,4722.85s239.18,287.94,291.25,297.95c52.07,10.01,544.09,75.81,544.09,75.81,0,0,27.66,9.79,30.81,37.18,3.16,27.39-14.46,71.01-14.46,71.01,0,0-516.5,60.96-562.73,48.79-46.24-12.17-479.63-384.61-479.63-384.61"/>
            <path class="cls-73" d="m956.49,5186.17c-38.27-10.07-341.61-266.82-445.03-355.02l-49.37,37.84s433.39,372.44,479.63,384.61c46.23,12.17,562.73-48.79,562.73-48.79,0,0,4.85-12.14,9.01-27.56-51.42,2.08-513.31,20.42-556.96,8.93Z"/>
            <path class="cls-87" d="m1502.4,7384.46c11.19-54.93,16.52-111.46,17.9-167.24,2.39-96.17-21.56-198.79-128.82-215.87-167.83-26.73-346.01-4.77-512.77,21.4-138.01,21.66-317.96,21.53-430.34,115.41-172.6,144.2,50.77,327.66,170.99,410.21,230.33,158.16,564.03,359.24,783.48,68.86,51.54-68.2,82.43-148.61,99.56-232.77Z"/>
            <path class="cls-123" d="m570.52,7423.36v1.49s0,.74.25,1.74c.25.75.5,1.24.5,2.24,2.74,9.71,13.95,34.87,56.53,42.34,2.49.5,5.23.75,7.97,1,1,.25,2.24.5,3.24.5,9.46.75,19.92,1,31.88.5,3.49-.25,6.97-.5,10.46-1,46.32-9.46,89.41-45.08,100.62-54.79,1.99-1.74,2.99-2.74,2.99-2.74v-8.72s30.63-20.42,41.84-27.15c34.12-20.17,83.18-37.36,130-60.52,14.44-7.22,25.15-14.94,32.87-22.16,1.49-1.49,2.99-3.24,4.48-4.48,1-.74,1.74-1.74,2.74-2.74,1-1.24,1.74-2.74,2.74-3.98,1.99-2.74,3.73-5.23,5.23-7.47.75-1.49,1.49-2.74,1.99-3.74.75-1.49,1.25-2.49,1.74-3.49.5-1.24,1-2.49,1.25-3.73v-.25c1.74-5.73,2.74-11.7,2.74-17.68v-30.63l-285.16,116.8-155.9,58.28-1,30.38Z"/>
            <path class="cls-44" d="m740.29,7210.6s47.77-2.17,125.6-15.49c77.83-13.32,131.53-17.13,141.59,7.14,9.76,23.55,11.99,48.77-57.53,96.34-69.53,47.58-123.33,52.53-179,97.38-41.25,33.22-78.38,41.1-119.89,43.96-41.51,2.86-69.52-13.06-78.57-29.97-21.01-39.28.74-113.71.74-113.71"/>
            <path class="cls-123" d="m851.07,7468.67l-.25,38.64c-.09,13.9,7.04,27.5,19.63,33.4,4.94,2.32,10.59,4.03,16.84,4.74,48.25,5.45,122.55-5.98,122.55-5.98v-14.27s26.44-2.95,104.35-12.63c80.5-10,134.84-33.85,161.33-48.06,11.48-6.16,18.69-17.97,18.62-30.99l-.15-28.29-306.33,54.05-136.6,9.39Z"/>
            <path class="cls-44" d="m1065.98,7332.97s34.1,32.09,74.21,32.09,118.33-1,138.39,13.04c10.03,7.02,15.04,15.54,15.67,25.07.63,9.53-3.13,20.06-10.65,31.09-15.04,22.06-116.33,55.16-192.54,61.17-76.21,6.02-80.22,5.02-116.32,11.03-36.1,6.02-73.65,8.86-96.38-2.39-39.3-19.46-42-78.83-17.94-117.94,24.07-39.11,205.57-53.15,205.57-53.15Z"/>
            <path class="cls-75" d="m649.97,4496.16l-6.23,14.44,9.46,47.82,152.42,76.71,8.97-1.25,24.41-2.99,38.35-4.98v-52.8c0-27.15,14.69-53.55,39.6-64.25,1-.5,1.74-.75,1.74-.75,8.47-3.24,17.19-8.72,25.9-17.43l2.24-2.24c29.39-31.13,55.54-101.11,48.07-254.28-1.49-26.65-7.47-72.97-19.67-96.63-22.17-42.59-69.23-70.73-166.36-44.08-161.88,44.83-232.61,118.3-240.83,181.8-8.22,63.26,81.94,220.9,81.94,220.9Z"/>
            <path class="cls-104" d="m877.35,4625.92v-52.8c0-27.15,14.69-53.55,39.6-64.25-7.97,3.49-32.53,15.27-65.24,32.79-13.1,7.02-12.71,49.15-12.71,89.24l38.35-4.98Z"/>
            <g>
              <g>
                <path class="cls-48" d="m1123.01,4898.6l323.09,166.01,147.34-471.72c4.98-16.51-2.29-34.35-17.11-41.99l-270.2-138.72c-14.27-7.36-31.45.32-36.24,16.22l-146.88,470.2Z"/>
                <path class="cls-115" d="m1144.02,4888.48l287.92,148.77,137.19-438.07c5.38-20,4.44-28.72-15.79-38.77l-252.11-130.26c-6.33-3.28-13.95.13-16.08,7.18l-141.13,451.14Z"/>
                <path class="cls-6" d="m1401.38,4642.22l89.22,46.04c2.39,1.24,5.27-.05,6.07-2.72l24.59-81.52c.65-2.15-.3-4.47-2.23-5.47l-89.22-46.04c-2.39-1.24-5.27.05-6.08,2.72l-24.59,81.52c-.65,2.15.3,4.47,2.23,5.47Zm-65.55,206.24l69.11,35.66c1.85.96,4.08-.04,4.7-2.11l54.16-173.26c.5-1.67-.23-3.46-1.72-4.24l-69.11-35.66c-1.85-.96-4.08.04-4.71,2.11l-54.16,173.26c-.5,1.67.23,3.46,1.73,4.24Zm-40.3-155.29l52.96,27.33c1.42.73,3.13-.03,3.6-1.61l.82-3.4c.38-1.28-.18-2.66-1.32-3.25l-52.96-27.33c-1.42-.73-3.13.03-3.61,1.61l-.82,3.4c-.39,1.28.17,2.66,1.32,3.25Zm43.79,44.87c2.51,1.3,5.54-.06,6.39-2.86l1.45-6.02c.68-2.26-.31-4.71-2.34-5.75l-93.83-48.42c-2.51-1.3-5.54.06-6.39,2.86l-1.45,6.02c-.68,2.26.31,4.7,2.34,5.75m-5.3,17.5l93.83,48.42c2.51,1.3,5.54-.06,6.39-2.86l1.45-6.02c.68-2.26-.31-4.71-2.34-5.75l-93.83-48.42c-2.51-1.3-5.54.06-6.39,2.86l-1.45,6.02c-.68,2.26.31,4.71,2.34,5.75Zm-5.3,17.5l93.83,48.42c2.51,1.3,5.54-.06,6.39-2.86l1.45-6.02c.68-2.26-.31-4.71-2.34-5.75l-93.83-48.42c-2.51-1.3-5.54.06-6.39,2.86l-1.45,6.02c-.68,2.26.31,4.7,2.34,5.75Zm-5.3,17.49l93.83,48.42c2.51,1.3,5.54-.06,6.39-2.86l1.45-6.02c.68-2.26-.31-4.7-2.34-5.75l-93.83-48.42c-2.51-1.3-5.54.05-6.39,2.86l-1.45,6.02c-.68,2.26.32,4.71,2.34,5.75Zm-5.3,17.5l93.83,48.42c2.51,1.3,5.54-.06,6.39-2.86l1.45-6.02c.68-2.26-.31-4.71-2.34-5.75l-93.83-48.42c-2.52-1.3-5.54.06-6.39,2.86l-1.45,6.02c-.68,2.26.32,4.71,2.34,5.75Zm52.4-171.45l97.85,50.49c2.62,1.36,5.78-.06,6.66-2.98l26.97-89.4c.71-2.36-.33-4.91-2.45-6l-97.85-50.49c-2.62-1.35-5.78.06-6.66,2.98l-26.97,89.41c-.71,2.36.33,4.91,2.45,6Z"/>
              </g>
              <path class="cls-75" d="m1377.04,4969.21l52.13,43.38,9.82,8.21s11.96-49.99,33.03-68.91c7.32-6.43,28.39-15,40.35-18.21,6.96-1.96,13.03-5.89,17.32-11.61,10.18-13.92,25.17-44.45,17.32-97.48-1.43-10.18-3.93-17.14-6.78-21.96-.18-.18-.18-.36-.18-.36-6.43-11.07-14.46-10.71-14.46-10.71,0,0-35.17,24.99-45.35,32.49-8.39,6.25-19.1,18.39-27.31,9.28-4.46-4.64,21.25-37.13,28.38-51.95,6.96-14.82-6.6-30.89-12.67-25.17-5.89,5.89-41.96,51.24-56.6,89.62-14.64,38.2-34.99,123.36-34.99,123.36Z"/>
              <path class="cls-104" d="m1417.2,4975.46l11.96,37.13,9.82,8.21s11.96-49.99,33.03-68.91c7.32-6.43,28.39-15,40.35-18.21,6.96-1.96,13.03-5.89,17.32-11.61,10.18-13.92,25.17-44.45,17.32-97.48-1.43-10.18-3.93-17.14-6.78-21.96-.18-.18-.18-.36-.18-.36,0,0-.35,9.11-14.82,21.96-14.46,12.67-35.7,24.46-45.88,30.89-10,6.43-25.71,29.81-35.35,53.2-9.82,23.57-26.78,67.13-26.78,67.13Z"/>
              <path class="cls-22" d="m1448.73,5019.64l9.11-29.09c1.74-5.55,1.37-11.53-1.14-16.78-5.01-10.46-14.33-28.12-23.84-36.83-14.01-12.84-32.47-14.97-43.6-7.06-4.52,3.21-8.21,14.49-11.33,21.98-2.66,6.37-3.03,24.02-2.25,25.98.78,1.95,19.34,28.51,21.49,30.86,2.15,2.34,51.57,10.94,51.57,10.94Z"/>
            </g>
            <path class="cls-80" d="m493.82,5944.61c36.11,197.24,62.01,441.81,62.01,441.81,0,0-60.27,489.87,7.47,916.49,2.99,20.17,9.96,62.76,35.86,79.44,14.7,8.97,53.55,15.44,83.68-.5,1.25-.75,2.49-1.25,3.74-1.99,101.11-55.29,90.4-127.01,105.1-174.08-.25-189.77-20.17-656.74,20.17-759.35l36.11-413.91-13.2-295.87h-362.11v1l-1.74-1s-30.88,79.44,22.91,207.95Z"/>
            <path class="cls-94" d="m604.39,5952.59c34.12,112.07,77.95,404.7,87.16,476.18,0,0-33.62,563.59-4.98,951.11,101.11-55.29,90.4-127.01,105.1-174.08-.25-189.77-20.17-656.74,20.17-759.35l36.11-413.91-13.2-295.87h-249.05s-15.44,103.85,18.68,215.92Z"/>
            <path class="cls-80" d="m627.56,5834.29c11.45,50.81,33.87,121.78,78.2,189.28,6.97,10.46,13.2,21.17,19.18,31.88,1.24,4.98,18.93,71.23,40.84,160.14,22.16,88.91,48.56,200.48,67.49,295.37-10.46,119.04-39.85,535.95,16.19,897.06,3.98,25.65,22.41,46.82,47.57,53.79,11.71,3.24,25.15,5.23,39.85,4.24,10.71-.75,21.92-2.99,33.37-7.97,59.27-24.91,102.11-119.79,102.11-119.79,0,0,1.49-599.7,32.63-757.1,5.98-30.14,8.97-60.52,10.96-90.9,5.73-96.38,16.19-272.21,19.43-345.68,6.23-142.95,7.22-262.99,2.24-316.53l-296.61,3.73-213.43,2.49Z"/>
            <path class="cls-94" d="m840.99,5831.8c1.49,17.68,2.49,29.39,2.49,29.39,0,0,2.99,74.71,40.6,186.78,37.86,112.07,75.38,377.8,79.36,477.42,3.98,91.65-44.75,528.48-26.57,940.65,10.71-.75,21.92-2.99,33.37-7.97,59.27-24.91,102.11-119.79,102.11-119.79,0,0,1.49-599.7,32.63-757.1,5.98-30.14,8.97-60.52,10.96-90.9,5.73-96.38,16.19-272.21,19.43-345.68,6.23-142.95,7.22-262.99,2.24-316.53l-296.61,3.73Z"/>
            <path class="cls-84" d="m435.79,4997.74c47.82,145.19,74.71,383.78,45.82,483.4-29.14,99.62-45.82,240.83-45.82,240.83,27.15,74.71,280.18,236.59,421.39,249.05,17.18,1.49,34.61.74,51.8-1.99,124.27-18.43,240.83-128.76,240.83-128.76,0,0-26.9-408.93-43.58-670.43-11.21-173.83-36.86-282.17-53.05-335.22-7.97-26.65-13.45-39.35-13.45-39.35-14.94-19.67-59.52-53.05-116.31-90.41-.25,0-.74-.25-1.24-.5-38.1-25.4-81.44-52.3-125.02-77.95h-.25c-58.03-34.37-116.55-66.5-163.37-89.91-5.48-2.74-10.71-5.23-15.69-7.47-33.12-16.19-58.78-26.89-71.97-29.39-66.5-12.45-155.65,22.67-182.55,143.2-27.15,120.29,24.9,209.45,72.47,354.89Z"/>
            <path class="cls-71" d="m923.92,5479.4c8.47,111.57-8.47,390.01-14.94,489.62,124.27-18.43,240.83-128.76,240.83-128.76,0,0-26.9-408.93-43.58-670.43-11.21-173.83-36.86-282.17-53.05-335.22-13.45-15.44-22.16-25.15-22.16-25.15h-163.88s-85.17,17.43-54.29,211.44c31.38,194.01,100.86,321.52,111.07,458.49Z"/>
            <path class="cls-83" d="m616.85,4590.3c24.91,34.12,114.23,83.45,155.32,92.16,41.34,8.47,74.22,4.25,93.72,3.97,27.39-.38,48.56,14.7,56.28,17.93.5.25,1,.5,1.24.5.25.25.5.25.5.25l-24.41-37.11-28.39-18.18s-41.59-15.19-50.8-19.43c-2.99-1.49-11.96-2.74-23.16-3.98h-.25c-24.65-2.99-60.02-5.48-65.5-6.23-7.72-1-71.97-45.08-74.71-46.82-1.49-1-14.19-21.92-23.16-36.86-5.48-2.74-10.71-5.23-15.69-7.47-8.96,11.21-20.67,34.12-1,61.27Z"/>
            <path class="cls-117" d="m525.45,4280.99c13.94,83.18,84.42,213.93,120.04,225.88,21.67,7.47,41.84,10.46,58.78,11.21,27.89,1.49,52.8-18.43,57.78-45.82,4.48-23.41,11.7-52.55,24.16-75.21,24.91-46.07,57.53-70.23,73.97-61.51,16.44,8.46,14.69,38.1,14.69,38.1l10.71-.25s1-9.46,2.49-22.16c1.25-12.45,2.49-28.39,3.24-40.59,0-31.13,9.71-61.51,28.64-86.17,11.46-15.19,25.15-38.35,39.85-73.47,9.71-23.41,11.95-45.57,9.96-65.75v-.25c-6.72-64-32.79-90.22-57.53-108.34-80.57-58.98-249.05,50.56-311.31,102.86-34.12,28.64-57.78,61.51-69.73,99.12v.25c-9.96,30.88-11.95,64.75-5.73,102.11Z"/>
            <path class="cls-4" d="m628.41,4525.05l15.41-14.34c100.66,111.03,233.48,115.18,233.48,115.18,0,0,36.4,36.72,46.74,79.32l-21.21-13.71c-11.14-7.2-23.6-12.25-36.71-14.3-8.33-1.31-26.8-2.23-26.8-2.23-83.16-1.14-165.94-59.21-209.23-95.07-17.02-14.1-17.86-39.81-1.68-54.86Z"/>
            <path class="cls-92" d="m1004.86,7285.23c-1.31,2.79-3.36,5.11-5.25,7.54,2.07-2.73,3.84-5.29,5.25-7.54Z"/>
            <path class="cls-92" d="m996.89,7296.69c1.11-1.19,1.74-2.66,2.72-3.92-1.59,2.1-3.3,4.27-5.46,6.65,1-.74,1.74-1.74,2.74-2.74Z"/>
            <path class="cls-84" d="m849.21,4945.19c15.69,91.65,190.52,358.38,197.75,369.09,31.38,50.06,62.01,93.64,87.41,124.77h.25c23.16,28.89,42.34,47.57,54.29,51.05,2.24.75,4.48,1.24,6.98,1.74,54.29,12.95,95.39-22.16,110.33-61.51,14.19-31.13,56.53-104.6,91.15-199.24,23.16-63.01,37.11-139.96,52.05-202.72,3.49-15.19,1.74-31.13-6.23-44.83-.75-1-1.24-2.24-1.99-3.24-9.71-16.19-23.16-34.37-35.12-36.36-21.92-3.24-26.15,2.49-26.15,2.49,0,0-40.09,64.51-71.98,114.32-24.65,38.6-52.3,106.09-63.51,134.49-2.99,8.47-4.98,13.45-4.98,13.45-57.78-134.24-133.24-299.11-163.87-368.09-37.11-83.43-149.93-101.36-208.45-31.13-.74,1-1.49,1.99-2.49,2.99-3.73,4.48-6.23,10.46-8.22,16.69l-.25-.25s-.25.25-.5.5c-2.99,3.73-21.17,30.13-6.48,115.8Z"/>
            <path class="cls-18" d="m525.45,4280.99c13.94,83.18,84.42,213.93,120.04,225.88,21.67,7.47,41.84,10.46,58.78,11.21,27.89,1.49,52.8-18.43,57.78-45.82,4.48-23.41,11.7-52.55,24.16-75.21,24.91-46.07,57.53-70.23,73.97-61.51,16.44,8.46,14.69,38.1,14.69,38.1l10.71-.25s1-9.46,2.49-22.16c1.25-12.45,2.49-28.39,3.24-40.59,0-31.13,9.71-61.51,28.64-86.17,11.46-15.19,25.15-38.35,39.85-73.47,9.71-23.41,11.95-45.57,9.96-65.75-7.97,20.17-74.96,176.57-262.49,215.92-195.75,41.09-177.32-114.31-176.07-122.28-9.96,30.88-11.95,64.75-5.73,102.11Z"/>
            <path class="cls-106" d="m1244.44,5195.24c-2.99,8.47-4.98,13.45-4.98,13.45,0,0,18.68,38.85,15.69,80.94,0,0,21.3-45.69-10.71-94.39Z"/>
            <path class="cls-73" d="m855.68,4829.39l.75-.25s-5.98,76.45,66.5,203.97c72.68,127.68,226.88,432.8,303.09,424.37,40.17-4.44,128.76-193.01,161.88-281.17,26.4-70.48,46.32-162.13,53.29-196,.75,1,1.24,2.24,1.99,3.24,7.97,13.7,9.71,29.64,6.23,44.83-14.94,62.76-28.89,139.72-52.05,202.72-34.62,94.64-76.96,168.11-91.15,199.24-15.04,39.38-56.08,73.89-110.33,61.16v.35c-2.49-.5-4.73-1-6.98-1.74-11.95-3.49-31.13-22.17-54.29-51.05h-.25c-25.4-31.13-56.03-74.71-87.41-124.77-7.22-10.71-182.05-277.44-197.75-369.09-14.69-85.67,3.49-112.07,6.48-115.8Z"/>
          </g>
        </g>
      </g>
    </g>
  </g>
</svg>