<?xml version="1.0" encoding="UTF-8"?>
<svg id="Capa_1" data-name="Capa 1" xmlns="http://www.w3.org/2000/svg" viewBox="0 0 1242.94 915.96">
  <defs>
    <style>
      .cls-1 {
        fill: #003c84;
      }

      .cls-2 {
        opacity: .36;
      }

      .cls-3 {
        fill: #abdbff;
      }
    </style>
  </defs>
  <g id="OBJECTS">
    <g>
      <g class="cls-2">
        <path class="cls-3" d="m9.29,0C4.01,0,.25,65.31.12,69.74c-1.38,45.89,9.17,83.15,24.83,125.13,27.9,74.76,95.86,130.63,170.4,155.3,47.97,15.87,123.96,8.66,172.63,22.2,78.46,21.82,162.11,88.38,200.67,170.91,51.3,109.81,104.88,226.08,204.12,295.65,85.61,60.02,152.98,83.39,261.23,75.57,115.35-8.34,208.92-58.74,208.92-58.74V0H9.29Z"/>
      </g>
      <path class="cls-1" d="m1242.94,0v754.97c-444.66,308.65-631.63-107.16-726.2-271.26-147.13-255.31-197.49-124.7-328.46-201.7C84.77,221.16,49.79,108.87,61.79,0h1181.15,0Z"/>
    </g>
  </g>
</svg>